<svg width="62" height="63" viewBox="0 0 62 63" fill="none" xmlns="http://www.w3.org/2000/svg">
<path d="M5.87614 19.5675C5.62871 19.4528 5.52094 19.2621 5.55282 18.9953C5.57099 18.8397 5.54435 18.695 5.5498 18.5533C5.5615 18.2332 5.57402 18.0292 5.58734 17.9412C5.62064 17.7208 5.74294 17.5991 5.94456 17.481C6.86972 16.9381 7.59467 16.5216 8.11941 16.2313C8.12223 16.2297 9.19855 15.6115 11.3484 14.3768C11.8235 14.1035 12.2887 13.8357 12.744 13.5733C14.5277 12.5461 15.5693 11.9475 15.8688 11.7775C15.9439 11.7351 16.0194 11.6917 16.0952 11.6473C17.2707 10.9632 18.3314 10.3466 19.2776 9.79764C19.5997 9.61075 19.923 9.42628 20.2475 9.24424C20.6891 8.9964 21.0119 8.81193 21.2157 8.69084C21.6456 8.43533 22.0002 8.23149 22.2795 8.07932C22.7124 7.84318 23.3736 7.43268 23.8598 7.17717C23.888 7.16223 23.949 7.14104 24.0426 7.11359C24.0691 7.10569 24.0975 7.10569 24.1244 7.11359C24.2136 7.13902 24.3482 7.2026 24.5282 7.30432C26.8819 8.63716 29.065 9.87433 31.0776 11.0158C31.6715 11.3525 32.2643 11.7097 32.8613 12.0264C33.3154 12.2667 33.6508 12.4817 34.0983 12.7075C34.3308 12.825 34.7049 13.0781 35.0222 13.227C35.2057 13.313 35.3613 13.4292 35.5362 13.5261C36.553 14.088 37.4733 14.6032 38.2972 15.0719C38.4021 15.1316 38.5184 15.2008 38.6459 15.2796C38.7557 15.3474 38.872 15.4162 38.9947 15.486C39.4661 15.7532 40.0555 16.0802 40.7626 16.4669C41.0472 16.6219 41.2785 16.7793 41.5395 16.9125C41.9542 17.1238 42.3532 17.3618 42.6566 17.5422C42.7946 17.6245 42.8618 17.7941 42.8775 17.9654C42.9054 18.2637 42.9131 18.5967 42.9006 18.9644C42.8866 19.3616 42.7577 19.5959 42.3381 19.5953C26.2851 19.5925 14.4126 19.5911 6.72077 19.5911C6.26183 19.5911 5.99643 19.5877 5.92458 19.5808C5.90772 19.5788 5.89139 19.5743 5.87614 19.5675Z" fill="#00F7C8"/>
<path d="M8.81697 23.8137C8.76126 23.7574 8.68739 23.8052 8.62685 23.8052C8.289 23.8036 8.0343 23.8082 7.86275 23.8191C7.8409 23.8203 7.81903 23.816 7.79917 23.8064C7.58241 23.7047 7.51036 23.5667 7.51218 23.3105C7.51702 22.7091 7.52126 22.3519 7.5249 22.2389C7.53337 21.9846 7.66234 21.8564 7.91179 21.8544C9.80489 21.8407 12.103 21.8389 14.8063 21.8489C15.1332 21.8502 15.3126 21.8572 15.3445 21.8701C15.5946 21.9725 15.5558 22.2201 15.5534 22.5065C15.5514 22.7668 15.5524 23.0234 15.5564 23.276C15.5597 23.448 15.5381 23.5683 15.4917 23.6369C15.2955 23.9281 14.7542 23.7428 14.3734 23.8167C14.3092 23.8292 14.2765 23.8912 14.2753 24.0026C14.2704 24.5633 14.2791 25.0511 14.3013 25.466C14.3522 26.4069 14.3376 27.1056 14.36 27.9878C14.3685 28.3402 14.4103 28.7834 14.4121 29.1787C14.4145 29.6704 14.4232 30.0518 14.4381 30.3231C14.4878 31.2119 14.4805 32.0305 14.5284 32.8969C14.5368 33.0564 14.5415 33.3153 14.5423 33.6737C14.5435 34.1823 14.5937 34.7388 14.5841 35.2698C14.5804 35.4732 14.595 35.7453 14.6276 36.0859C14.6402 36.2155 14.6503 36.8902 14.6579 38.11C14.6597 38.3734 14.6761 38.6017 14.6985 38.8517C14.7076 38.9546 14.6488 39.037 14.7518 39.1212C14.7679 39.1341 14.7878 39.1416 14.8087 39.1423C15.038 39.1512 15.2024 39.1607 15.3021 39.1708C15.637 39.2041 15.6648 39.4299 15.6684 39.7339C15.6753 40.2296 15.6697 40.5977 15.6515 40.8383C15.6422 40.961 15.5758 41.055 15.4523 41.1204C15.4316 41.1316 15.4086 41.1378 15.3851 41.1386C15.333 41.1406 15.0283 41.1408 14.4708 41.1392C12.0373 41.1327 9.78733 41.1339 7.72107 41.1428C7.58786 41.1432 7.48171 41.0665 7.40259 40.9127C7.39462 40.8968 7.39027 40.879 7.38988 40.8607C7.38947 40.6722 7.38786 40.2621 7.38503 39.6304C7.38422 39.462 7.40542 39.3526 7.44861 39.3022C7.60663 39.1181 8.00261 39.1442 8.21755 39.1532C8.23298 39.1536 8.24811 39.1496 8.26115 39.1417C8.29061 39.1236 8.32109 39.1203 8.35257 39.1321C8.36031 39.1349 8.36861 39.136 8.37678 39.1353C8.38495 39.1346 8.39276 39.1321 8.39956 39.128C8.40637 39.124 8.41197 39.1184 8.4159 39.1118C8.41984 39.1053 8.422 39.0979 8.4222 39.0903C8.42462 38.9922 8.4555 38.8547 8.45368 38.7627C8.44581 38.4031 8.48335 37.949 8.48335 37.5251C8.48416 36.8333 8.49264 36.2981 8.50878 35.9194C8.54228 35.142 8.55762 34.5095 8.5548 34.0219C8.55419 33.8548 8.59839 33.6774 8.59779 33.5157C8.59415 32.771 8.60404 32.198 8.62745 31.7968C8.65894 31.262 8.67246 30.9023 8.66802 30.7179C8.65712 30.2904 8.71525 29.8103 8.71706 29.2774C8.7211 28.3583 8.73139 27.6812 8.74794 27.2461C8.78245 26.3433 8.75763 25.6985 8.83392 24.84C8.85289 24.6256 8.8537 24.2981 8.83634 23.8573C8.83554 23.8409 8.82863 23.8254 8.81697 23.8137Z" fill="#00F7C8"/>
<path d="M21.272 23.9487L21.2756 23.9033C21.2926 23.8848 21.2946 23.868 21.2817 23.8531C21.2764 23.8474 21.2454 23.8412 21.1885 23.8343C21.0347 23.8165 20.8847 23.8093 20.7386 23.8125C20.4237 23.8192 20.2052 23.7586 20.2161 23.3887C20.2217 23.205 20.2215 22.8139 20.2155 22.2153C20.2155 22.2 20.2171 22.1848 20.2203 22.1699C20.2627 21.9636 20.3993 21.8568 20.6302 21.8496C20.7719 21.8447 20.9777 21.8439 21.2478 21.8472C21.555 21.8504 21.7092 21.852 21.7104 21.852C23.2095 21.8423 24.461 21.8459 25.4649 21.8629C26.0152 21.872 26.5832 21.8405 27.0797 21.8496C27.314 21.8538 27.4242 21.9628 27.4333 22.2032C27.4466 22.5568 27.4472 22.7632 27.4351 22.8226C27.4044 22.9707 27.3204 23.0504 27.1832 23.0617C26.8788 23.0868 26.6124 23.119 26.384 23.1586C25.5605 23.3003 24.857 23.6365 24.2733 24.1673C23.9266 24.4822 23.62 24.9082 23.3536 25.4455C23.2634 25.6271 23.2107 25.8311 23.1344 26.037C22.9597 26.506 22.8745 27.0859 22.8789 27.7765C22.8822 28.3146 22.9023 28.6952 22.9395 28.9184C23.0965 29.8605 23.2224 30.4882 23.3173 30.8014C23.4569 31.2648 23.6287 31.7682 23.8325 32.3115C23.8939 32.4749 24.0204 32.7523 24.2122 33.1434C24.5972 33.9313 25.0984 34.6805 25.7155 35.3909C26.168 35.912 26.4601 36.2307 26.5917 36.3469C26.7495 36.4866 26.8328 36.6561 26.8417 36.8555C26.8752 37.6208 26.8861 38.344 26.8744 39.0249C26.874 39.0463 26.8801 39.0673 26.8919 39.0852C26.9036 39.1032 26.9206 39.1172 26.9404 39.1254C27.3061 39.2744 28.0527 38.9214 28.0605 39.5831C28.0605 39.5912 28.0585 39.8395 28.0545 40.3279C28.0512 40.679 28.0454 40.869 28.0369 40.8976C27.9564 41.1628 27.6482 41.1368 27.3745 41.1368C25.412 41.1356 23.0131 41.1368 20.1779 41.1404C20.0928 41.1404 20.01 41.0922 19.9297 40.9957C19.8958 40.9553 19.8722 40.8474 19.8588 40.6718C19.8572 40.6508 19.8617 40.3198 19.8722 39.6788C19.877 39.4148 19.9285 39.2035 20.2088 39.1878C20.5769 39.1668 20.8282 39.1508 20.9626 39.1399C20.9804 39.1384 20.9969 39.1304 21.0091 39.1173C21.0213 39.1042 21.0282 39.0871 21.0286 39.0691L21.3422 24.0081C21.3424 23.9985 21.3396 23.9892 21.3342 23.9812C21.3288 23.9733 21.321 23.9673 21.312 23.9639L21.272 23.9487Z" fill="#00F7C8"/>
<path d="M51.3275 24.5245C51.3227 24.539 51.3328 24.5552 51.3578 24.5729C51.3657 24.5784 51.3749 24.5816 51.3844 24.582C52.0426 24.6117 52.6904 24.631 53.3425 24.6153C53.9544 24.6008 54.4223 24.6102 54.746 24.6438C55.5494 24.7273 56.2893 25.1293 56.767 25.8087C56.847 25.9229 56.913 26.02 56.965 26.0999C57.0869 26.2864 57.1796 26.5375 57.2429 26.8531C57.3543 27.4065 57.3654 28.0069 57.2762 28.6544C57.2056 29.1678 57.144 29.561 57.0916 29.8338C57.0403 30.101 56.9896 30.3115 56.9396 30.4653C56.8928 30.609 56.8304 30.8159 56.7525 31.0859C56.6492 31.4448 56.514 31.8036 56.3468 32.1625C56.1943 32.4902 56.0998 32.6874 56.0635 32.754C55.6441 33.5314 55.1977 34.175 54.7242 34.6848C54.3137 35.1268 53.97 35.4534 53.6931 35.6645C53.6818 35.6734 53.5316 35.7916 53.2426 36.0193C53.1013 36.1311 52.973 36.2197 52.8575 36.2851C52.6789 36.3868 52.5445 36.4904 52.3271 36.6163C51.624 37.0232 50.8879 37.3479 50.119 37.5905C49.9741 37.6365 49.876 37.6631 49.8247 37.6704C49.6915 37.6886 49.5801 37.7449 49.4324 37.7818C48.6852 37.9699 48.0656 38.0928 47.5736 38.1505C47.484 38.161 47.4176 38.183 47.3744 38.2165C47.267 38.2997 46.9907 38.5029 46.5455 38.8262C46.2549 39.037 45.9673 39.1895 45.667 39.3966C45.5891 39.4503 45.4686 39.5207 45.3055 39.6079C44.964 39.7912 44.7418 39.9197 44.6389 39.9936C44.5457 40.0602 44.4867 40.1613 44.4621 40.2969C44.4189 40.5367 44.3794 40.7304 44.3434 40.8782C44.2466 41.2802 44.0013 41.5751 43.6078 41.7628C43.5343 41.7979 43.4728 41.859 43.4231 41.9462C43.4136 41.9629 43.4084 41.9819 43.408 42.0013C43.3987 42.4998 43.4031 42.8149 43.4213 42.9465C43.4972 43.4873 43.5787 43.8977 43.6659 44.1774C43.7305 44.384 43.8817 44.6868 44.1194 45.0856C44.2857 45.3653 44.5073 45.6222 44.7842 45.8563C45.2314 46.2354 45.6779 46.5294 46.1235 46.7385C46.4739 46.9028 46.7213 47.0239 46.8658 47.1018C47.6037 47.4994 47.9712 48.1456 47.9684 49.0405C47.9651 49.8627 47.9587 50.58 47.949 51.1923C47.9474 51.2949 47.9643 51.3857 47.9999 51.4648C48.0056 51.4777 48.015 51.4886 48.0268 51.4963C48.0386 51.5041 48.0523 51.5082 48.0665 51.5084L48.8941 51.5193C48.9022 51.5193 48.9101 51.5203 48.9177 51.5223C49.0901 51.5712 49.1852 51.6 49.2029 51.6089C49.416 51.7118 49.5521 51.8634 49.611 52.0636C49.6485 52.1912 49.6649 52.3536 49.66 52.551C49.6564 52.6975 49.6534 53.0669 49.651 53.659C49.6498 53.9793 49.4748 54.2082 49.2314 54.3813C49.0909 54.4814 48.9121 54.5313 48.6949 54.5309C45.0964 54.5208 39.7287 54.52 32.5919 54.5285C32.5546 54.5285 32.5176 54.5228 32.4823 54.5115C31.9935 54.3593 31.7416 54.0146 31.7267 53.4774C31.7238 53.374 31.7299 53.0211 31.7448 52.4184C31.7525 52.1076 31.8823 51.8588 32.1341 51.6719C32.1785 51.6388 32.3384 51.5883 32.6137 51.5205C32.6197 51.5193 32.6258 51.5185 32.6318 51.5181L33.3645 51.5072C33.393 51.5068 33.4208 51.4986 33.445 51.4836C33.51 51.4424 33.5405 51.3794 33.5364 51.2947C33.5211 50.9689 33.5164 50.6805 33.5225 50.4295C33.5316 50.0347 33.5346 49.5255 33.5328 48.8928C33.532 48.603 33.5548 48.3818 33.6012 48.2292C33.8234 47.5002 34.3798 47.1623 35.0549 46.8596C35.4576 46.6792 35.8487 46.4794 36.172 46.242C36.6273 45.9074 37.0193 45.506 37.3478 45.0378C37.3983 44.9659 37.4849 44.8115 37.6076 44.5746C37.6823 44.4305 37.745 44.265 37.7959 44.0781C37.9267 43.5979 38.0248 43.3097 38.0459 42.9138C38.0653 42.5582 38.0805 42.2439 38.0914 41.9711C38.0925 41.9406 38.0839 41.9105 38.0667 41.8852C38.0495 41.8599 38.0246 41.8408 37.9957 41.8306C37.7244 41.7357 37.5059 41.5866 37.34 41.3831C37.1347 41.1313 37.079 40.7298 37.0524 40.392C37.0366 40.1904 36.9052 40.0723 36.7363 39.9621C36.6249 39.889 36.1078 39.5748 35.1851 39.0194C34.9696 38.8892 34.7243 38.7039 34.4834 38.5508C34.4685 38.5415 34.4547 38.5305 34.4422 38.5181C34.3146 38.3909 34.1857 38.2862 34.0553 38.2038C34.0253 38.185 33.992 38.1723 33.9572 38.1663C33.3142 38.0549 32.6948 37.9007 32.099 37.7037C31.9707 37.6613 31.8187 37.6426 31.6994 37.5965C31.2215 37.4133 30.9375 37.3035 30.8475 37.2672C30.4007 37.0867 29.9294 36.8544 29.4338 36.5703C28.465 36.0153 27.6139 35.3236 26.8805 34.4953C26.6573 34.2435 26.4149 33.9296 26.1533 33.5538C25.9854 33.3129 25.8005 33.0035 25.5987 32.6256C25.4118 32.2757 25.2578 31.9481 25.1367 31.643C24.8195 30.845 24.5872 30.0336 24.4399 29.209C24.3242 28.5636 24.3097 27.9181 24.3424 27.3375C24.3589 27.0412 24.4306 26.7284 24.5573 26.399C24.8788 25.5641 25.5733 24.9998 26.4209 24.7164C26.647 24.6409 26.8884 24.6046 27.1451 24.6074C28.2162 24.6195 29.1807 24.602 30.1749 24.6032C30.285 24.6032 30.3407 24.5489 30.342 24.4403C30.348 23.9297 30.3482 23.4976 30.3426 23.144C30.3383 22.8637 30.4552 22.633 30.7737 22.636C31.8017 22.6461 33.8876 22.6475 37.0312 22.6403C41.3512 22.63 46.0684 22.6493 50.3557 22.6384C51.0181 22.6366 51.2349 22.613 51.2312 23.3087C51.2296 23.5872 51.2322 23.9458 51.2391 24.3846C51.2403 24.4605 51.2698 24.5071 51.3275 24.5245ZM31.7412 35.5355C31.74 35.5303 31.76 35.5196 31.8011 35.5034C31.8411 35.5155 31.8673 35.5105 31.8799 35.4883C31.8822 35.484 31.8836 35.4793 31.8837 35.4745C31.8838 35.4698 31.8827 35.4651 31.8805 35.4611C31.541 34.816 31.2869 34.1936 31.1182 33.5938C30.9006 32.8216 30.7634 32.263 30.7065 31.9178C30.7052 31.9126 30.6479 31.5495 30.5345 30.8286C30.5073 30.6561 30.5297 30.5204 30.497 30.3352C30.4679 30.1713 30.4538 30.0114 30.4546 29.8556C30.4546 29.8222 30.4509 29.7889 30.4437 29.7563C30.3571 29.3658 30.4146 28.9081 30.3971 28.6992C30.3442 28.0764 30.3317 27.4051 30.3595 26.6854C30.364 26.5796 30.3056 26.5274 30.1845 26.5286C29.5492 26.5362 28.7869 26.5354 27.8977 26.5262C27.7459 26.5245 27.5025 26.5324 27.1675 26.5498C27.1353 26.5514 27.1036 26.5571 27.073 26.5667C26.3973 26.7798 26.0952 27.2582 26.1666 28.0017C26.2054 28.4057 26.2266 28.6164 26.2302 28.6338C26.2787 28.8699 26.3059 29.0988 26.3537 29.3089C26.4074 29.5462 26.5049 29.8772 26.6462 30.3019C27.0615 31.5524 27.7082 32.6503 28.5861 33.5956C28.6842 33.7014 28.7631 33.7797 28.8228 33.8305C29.0566 34.0309 29.2013 34.1762 29.4447 34.3549C29.768 34.5922 30.123 34.8304 30.5097 35.0693C30.592 35.1206 30.6744 35.1615 30.7567 35.1922C30.9777 35.2752 31.0613 35.3321 31.2901 35.4108C31.343 35.429 31.4334 35.4707 31.5614 35.5361C31.6316 35.5721 31.6915 35.5719 31.7412 35.5355ZM49.7715 35.4841C49.7646 35.5038 49.7632 35.5226 49.7672 35.5404C49.7725 35.5614 49.7842 35.5672 49.8023 35.5579C49.8391 35.5999 49.8885 35.6088 49.9507 35.5846C50.1426 35.5119 50.3624 35.4635 50.5307 35.3938C51.6811 34.9192 52.6531 34.2005 53.4466 33.2378C53.9746 32.5972 54.3962 31.9051 54.7115 31.1616C54.9638 30.5666 55.1305 30.0926 55.2116 29.7394C55.3638 29.0766 55.4477 28.705 55.4635 28.6247C55.474 28.5706 55.4764 28.4852 55.4707 28.3686C55.4699 28.3489 55.4709 28.3292 55.4738 28.3099C55.5206 27.9668 55.5351 27.7377 55.5174 27.6227C55.4411 27.129 55.2037 26.8002 54.8053 26.6363C54.6297 26.5645 54.3048 26.529 53.8305 26.5298C52.9938 26.531 52.1768 26.5326 51.3796 26.5346C51.2754 26.535 51.2236 26.5774 51.224 26.6618C51.2256 26.9734 51.2282 27.3482 51.2318 27.7861C51.2349 28.1664 51.178 28.5793 51.1707 28.9123C51.165 29.186 51.1479 29.4671 51.1192 29.7557C51.0373 30.5767 50.9804 31.0682 50.9485 31.23C50.934 31.3019 50.922 31.3778 50.9128 31.4577C50.8631 31.8678 50.7711 32.3473 50.6367 32.8963C50.6322 32.9157 50.5606 33.1728 50.4217 33.6677C50.3479 33.932 50.2623 34.1841 50.165 34.4239C50.012 34.8021 49.8693 35.1391 49.7369 35.435C49.7293 35.4524 49.7317 35.4683 49.7442 35.4828C49.7503 35.4901 49.7593 35.4905 49.7715 35.4841Z" fill="#00F7C8"/>
<path d="M31.6776 42.8885C31.8253 42.8891 31.9113 42.9472 31.9973 43.0852C32.0103 43.1062 32.017 43.1306 32.0167 43.1555C32.0148 43.253 32.0294 43.3753 32.0276 43.4564C32.0195 43.8867 32.0197 44.2607 32.0282 44.5783C32.0548 45.5368 32.0415 45.9231 32.0336 47.0922C32.032 47.3445 32.034 47.6113 32.0397 47.8927C32.0451 48.1409 32.0397 48.4515 31.743 48.4927C31.5775 48.5157 31.3825 48.5254 31.1581 48.5217C30.1548 48.5066 29.1389 48.5502 28.1556 48.5441C27.4674 48.5405 26.2308 48.5393 24.4459 48.5405C14.0096 48.5474 7.15893 48.5446 3.89384 48.532C3.71503 48.5316 3.58828 48.441 3.51361 48.2602C3.50561 48.2402 3.5017 48.219 3.5021 48.1978C3.51058 47.6307 3.5132 46.8442 3.50997 45.8383C3.50917 45.6865 3.52895 45.5887 3.56931 45.5447C3.68011 45.4223 3.74369 45.386 3.93501 45.3848C4.3322 45.3824 4.71768 45.3747 5.09146 45.3618C5.12819 45.3606 5.16312 45.3456 5.18927 45.3198C5.21543 45.294 5.23088 45.2593 5.23253 45.2225C5.24767 44.9132 5.26826 44.7727 5.25554 44.5045C5.24464 44.2861 5.24121 43.9351 5.24525 43.4516C5.24686 43.2384 5.27754 43.0992 5.33728 43.0338C5.42649 42.9353 5.55969 42.8854 5.73689 42.8842C6.16677 42.8818 7.06226 42.903 7.70951 42.8891C8.04796 42.8818 8.41488 42.8933 8.65162 42.8933C14.7426 42.8889 19.8096 42.8889 23.8525 42.8933C26.4276 42.8957 28.9385 42.8764 31.6776 42.8885Z" fill="#00F7C8"/>
</svg>
