<svg width="62" height="63" viewBox="0 0 62 63" fill="none" xmlns="http://www.w3.org/2000/svg">
<path d="M40.6422 42.7183C40.1646 43.2088 39.9091 43.4721 39.8756 43.5085C39.7491 43.6441 39.6498 43.7791 39.5348 43.8942C39.3091 44.1202 39.014 44.4405 38.6496 44.855C38.149 45.4246 37.8705 45.742 37.814 45.8074C37.454 46.224 37.1819 46.5477 36.9978 46.7786C36.9773 46.8048 36.9581 46.8297 36.9403 46.8531C36.527 47.3928 36.2131 47.8113 35.9988 48.1088C35.7098 48.51 35.4305 48.947 35.1608 49.4197C35.0478 49.6178 34.955 49.8166 34.8823 50.016C34.8315 50.1561 34.8066 50.341 34.8079 50.5707C34.8123 51.6028 34.8311 52.4962 34.8642 53.2511C34.8751 53.5001 34.8837 53.6783 34.8902 53.7857C34.9096 54.1122 34.9187 54.2909 34.9174 54.3215C34.9011 54.7496 34.9193 55.3139 34.9592 55.7722C34.9931 56.164 34.9768 56.5575 35.0676 56.9547C35.1822 57.4532 35.2547 57.7511 35.285 57.8484C35.2946 57.88 35.2981 57.9129 35.2953 57.9453C35.2884 58.0119 35.293 58.1247 35.3092 58.2837C35.3619 58.7966 35.1966 59.1423 34.8993 59.5358C34.6698 59.8386 34.206 60.0656 33.8421 60.0916C33.7168 60.1001 33.6066 60.1316 33.4722 60.1334C31.9751 60.1536 30.4475 60.1544 28.8894 60.1359C28.7187 60.1338 28.5925 60.1252 28.511 60.1098C28.3178 60.0741 28.2064 60.0977 28.0115 60.0281C27.5743 59.8711 27.249 59.6145 27.0355 59.2585C26.8615 58.9679 26.788 58.6078 26.8151 58.1784C26.8207 58.0888 26.8369 58.0086 26.8635 57.938C26.8974 57.8466 26.8914 57.7358 26.9204 57.6147C27.0052 57.2635 27.1105 56.9335 27.1335 56.5727C27.1529 56.2732 27.1705 55.947 27.1862 55.5942C27.1911 55.4885 27.2094 55.32 27.2413 55.0887C27.2619 54.9429 27.2659 54.7546 27.2534 54.5238C27.231 54.1133 27.3182 53.6289 27.3103 53.1899C27.3025 52.7431 27.383 52.3574 27.3709 51.9596C27.3624 51.6855 27.3679 51.3348 27.3872 50.9073C27.3975 50.6681 27.3606 50.4471 27.3733 50.2249C27.3753 50.191 27.3699 50.1569 27.3576 50.125C27.2183 49.7589 27.1214 49.5335 27.0669 49.4487C26.7408 48.9369 26.4368 48.4747 26.1551 48.0622C25.9242 47.7239 25.7297 47.4499 25.5714 47.24C25.4628 47.0955 25.3815 46.9937 25.3274 46.9348C25.2075 46.8052 25.1379 46.6702 25.0174 46.5249C24.6134 46.0405 24.3857 45.7717 24.3345 45.7184C24.1468 45.5223 23.954 45.3023 23.7562 45.0585C23.4626 44.6958 23.0145 44.2362 22.7166 43.8942C22.4539 43.5926 22.2527 43.3749 22.113 43.2408C21.8187 42.9599 21.5953 42.6693 21.2944 42.3599C20.6583 41.704 20.05 41.0487 19.4695 40.3939C19.1268 40.007 18.6685 39.5414 18.353 39.16C18.0321 38.7719 17.7797 38.4891 17.5005 38.1313C17.4868 38.1139 17.2497 37.8102 16.7891 37.2201C16.691 37.0941 16.6323 37.0172 16.6129 36.9894C16.5548 36.9054 16.4587 36.7827 16.3247 36.6213C16.1863 36.4546 16.0894 36.3318 16.0341 36.2531C15.2123 35.085 14.494 33.9675 13.8792 32.9007C13.6895 32.5709 13.5299 32.2673 13.4003 31.99C13.2096 31.5825 12.9868 31.1872 12.8003 30.7494C12.5835 30.242 12.3662 29.771 12.1906 29.2533C11.9201 28.4549 11.7686 28.0069 11.7359 27.9092C11.6701 27.7126 11.6099 27.4934 11.5554 27.2516C11.4471 26.7751 11.326 26.341 11.2297 25.8209C11.1897 25.6025 11.1421 25.3448 11.0868 25.0477C11.0372 24.7795 11.0299 24.481 10.9724 24.2134C10.8912 23.8368 10.9221 23.4323 10.861 23.063C10.8384 22.9274 10.8301 22.7403 10.8361 22.5017C10.8382 22.4311 10.8275 22.2305 10.804 21.8999C10.7762 21.5027 10.8156 21.1085 10.8373 20.5709C10.8394 20.5192 10.8541 20.4381 10.8815 20.3275C10.8892 20.2969 10.8931 20.2656 10.8931 20.2342C10.8947 19.9674 10.9161 19.7152 10.9572 19.4774C11.0004 19.2296 11.0289 19.0613 11.0426 18.9725C11.1463 18.2915 11.2244 17.8558 11.2769 17.6652C11.4222 17.1373 11.5058 16.8208 11.5276 16.7159C11.5845 16.4446 11.6745 16.1552 11.7976 15.8476C11.9411 15.4892 12.1391 14.785 12.3819 14.2934C12.5266 14.0009 12.6429 13.6704 12.7918 13.3809C13.1583 12.6677 13.5295 11.9999 13.9053 11.3775C14.0199 11.1869 14.2905 10.7914 14.7172 10.1907C14.9154 9.91181 15.2633 9.4781 15.761 8.88958C15.9136 8.70915 16.291 8.32629 16.8932 7.74101C17.3227 7.32364 17.7242 6.9658 18.0975 6.66751C18.8309 6.08142 19.6068 5.54073 20.4249 5.04546C20.7378 4.85615 20.9503 4.73546 21.0625 4.68339C21.2514 4.59559 21.6462 4.36309 22.0555 4.19175C22.175 4.1417 22.2541 4.10658 22.2928 4.0864C22.5746 3.94068 23.2793 3.65934 24.4071 3.24237C24.5286 3.19757 24.7855 3.1231 25.1779 3.01895C25.9153 2.82278 26.8805 2.63388 27.4072 2.52792C27.6655 2.47585 28.0355 2.42903 28.517 2.38745C28.536 2.38584 28.5548 2.38239 28.5733 2.37716C28.6408 2.35859 28.6845 2.3487 28.7047 2.34749C28.9841 2.33578 29.3094 2.31399 29.6807 2.2821C29.8713 2.26555 30.0547 2.2599 30.2311 2.26515C30.6979 2.27847 31.1381 2.23669 31.5807 2.25727C31.7862 2.26656 32.0526 2.27342 32.3799 2.27786C32.4907 2.27968 32.6469 2.31601 32.7807 2.32085C33.0302 2.33054 33.2244 2.34749 33.3632 2.37171C33.4988 2.39593 33.589 2.40521 33.6339 2.39956C33.7059 2.39108 33.8997 2.39108 33.9965 2.42136C34.18 2.47706 34.3634 2.44981 34.559 2.4922C34.8393 2.55395 35.1179 2.58483 35.3715 2.63751C36.1736 2.80381 36.7102 2.9243 36.9815 2.99897C37.7609 3.21291 38.3323 3.39253 38.6956 3.53784C39.3216 3.7877 39.787 3.98286 40.0918 4.12333C40.3969 4.2644 40.7947 4.45573 41.2077 4.69065C41.6856 4.96271 41.9675 5.12336 42.0535 5.17261C42.3227 5.32761 42.7147 5.58634 43.2293 5.94882C43.2447 5.95931 43.262 5.96779 43.2814 5.97425C43.3002 5.98025 43.3177 5.98992 43.3329 6.0027C43.389 6.05155 43.5179 6.14721 43.7198 6.2897C43.8267 6.36518 43.9486 6.46246 44.0855 6.58153C44.2824 6.75227 44.4614 6.90203 44.6225 7.03079C44.8025 7.17408 44.9846 7.33413 45.1686 7.51093C45.7737 8.09177 46.1868 8.51076 46.408 8.76788C46.8202 9.2462 47.1249 9.61392 47.3223 9.87104C47.8515 10.5613 48.2896 11.2055 48.6368 11.8037C49.0622 12.5367 49.3837 13.1337 49.6013 13.5947C49.7526 13.9144 49.9674 14.4246 50.2455 15.1253C50.3109 15.2892 50.3581 15.426 50.3872 15.5358C50.4417 15.7417 50.5264 15.8712 50.5846 16.0759C50.7597 16.6931 50.9159 17.2993 51.0532 17.8947C51.1337 18.2429 51.1531 18.6049 51.2566 18.9537C51.2659 18.985 51.2708 19.0176 51.2712 19.0506C51.2748 19.2907 51.3077 19.5476 51.3698 19.8213C51.3863 19.8928 51.3928 19.9662 51.3892 20.0393C51.3844 20.1513 51.3656 20.566 51.4492 20.6853C51.4566 20.6956 51.4607 20.7081 51.4607 20.721C51.4655 21.3318 51.4627 22.0083 51.4522 22.7506C51.4518 22.7804 51.4395 22.8432 51.4153 22.9389C51.4084 22.9671 51.4042 22.9958 51.4025 23.0249C51.3666 23.7312 51.3143 24.3191 51.2457 24.7886C51.0887 25.8619 50.8481 26.957 50.524 28.0739C50.4945 28.176 50.3747 28.5247 50.1644 29.1201C50.0911 29.3278 49.9942 29.5155 49.9434 29.708C49.9357 29.7366 49.9247 29.7642 49.9107 29.7904C49.7956 30.0029 49.7036 30.2862 49.6219 30.4673C49.219 31.3553 48.9393 31.9361 48.7827 32.2098C48.5284 32.6534 48.2929 33.0585 48.0761 33.425C48.0149 33.5279 47.9483 33.6757 47.8684 33.8034C47.464 34.446 47.1005 34.9966 46.778 35.4551C46.7162 35.5427 46.651 35.6257 46.5824 35.704C46.5695 35.7189 46.558 35.7349 46.5479 35.7518C46.2355 36.2931 45.8601 36.6624 45.4375 37.2691C45.3386 37.4112 45.257 37.5087 45.1929 37.5616C45.1688 37.5808 45.1479 37.6039 45.1311 37.63C45.0213 37.7999 44.8609 38.0005 44.6498 38.2318C44.6247 38.2593 44.5955 38.3033 44.562 38.3638C44.5531 38.3795 44.5427 38.3941 44.5311 38.4074C44.0709 38.9342 43.6774 39.386 43.3504 39.763C43.2081 39.9271 43.0204 40.09 42.8872 40.248C42.5566 40.6387 42.1669 41.0646 41.7181 41.5256C41.3935 41.858 41.0575 42.2884 40.7106 42.6172C40.7017 42.6257 40.69 42.6439 40.6755 42.6717C40.6666 42.689 40.6554 42.7047 40.6422 42.7183ZM29.6995 8.54083C29.5942 8.58442 29.4053 8.61227 29.2975 8.67343C28.7643 8.97616 28.2839 9.36588 27.8565 9.84259C27.7568 9.95359 27.6659 10.0753 27.584 10.2077C27.3539 10.58 27.1457 10.8852 27.0276 11.283C26.9674 11.4848 26.9 11.7086 26.8254 11.9545C26.8205 11.9709 26.8181 11.9883 26.8181 12.0059C26.8181 12.0653 26.8026 12.1862 26.7715 12.3686C26.7452 12.5216 26.7424 12.831 26.763 13.2968C26.7646 13.3293 26.7705 13.3615 26.7806 13.3925C26.8003 13.4546 26.8332 13.5882 26.8792 13.7933C26.9418 14.0714 27.0484 14.3719 27.1989 14.6948C27.274 14.8553 27.3854 14.9939 27.4563 15.1344C27.5136 15.2478 27.5838 15.3542 27.667 15.4535C28.0185 15.8725 28.3532 16.1952 28.6708 16.4216C29.2642 16.8454 30.0719 17.1542 30.8451 17.1821C31.1761 17.1942 31.4031 17.1934 31.5262 17.1797C32.5567 17.0666 33.4403 16.6602 34.177 15.9602C34.3998 15.7483 34.5929 15.4777 34.8012 15.2288C34.8189 15.2075 34.8337 15.1841 34.8454 15.1592C34.9059 15.03 34.9865 14.8825 35.087 14.7166C35.2012 14.5281 35.2979 14.3011 35.377 14.0355C35.4912 13.652 35.5673 13.2667 35.6053 12.8796C35.638 12.5474 35.6166 12.2352 35.5411 11.943C35.492 11.7547 35.4648 11.5839 35.3891 11.3956C35.1925 10.9032 35.0222 10.5445 34.8781 10.3197C34.4797 9.69889 33.9311 9.18929 33.2324 8.79089C32.9806 8.64759 32.7139 8.53861 32.4326 8.46393C32.1488 8.38886 31.8665 8.33093 31.5856 8.29017C31.4168 8.26554 31.2067 8.26252 30.9553 8.28108C30.4438 8.31983 30.0253 8.40642 29.6995 8.54083ZM19.3757 14.5459C19.1407 14.6706 18.9411 14.8147 18.7769 14.9782C18.723 15.0321 18.6091 15.1077 18.5395 15.1858C18.1096 15.6694 17.8117 16.2262 17.6458 16.8563C17.5082 17.3791 17.506 17.8953 17.6392 18.4051C17.6408 18.4112 17.6644 18.4982 17.71 18.6661C17.7455 18.7965 17.772 18.882 17.7893 18.9228C17.9387 19.2728 18.0907 19.5432 18.2453 19.7341C18.3567 19.8714 18.4332 19.9727 18.4747 20.0381C18.4856 20.055 18.4984 20.0706 18.5129 20.0847C19.4005 20.9372 20.471 21.4131 21.6922 21.1618C22.1451 21.0686 22.5978 20.8664 23.0503 20.5551C23.221 20.4377 23.3282 20.2948 23.4777 20.1779C23.5738 20.1037 23.6697 19.9987 23.7653 19.8631C24.0035 19.5269 24.1583 19.278 24.2297 19.1166C24.3875 18.7581 24.4816 18.4846 24.5119 18.2961C24.5442 18.0943 24.5575 17.8176 24.5518 17.466C24.5478 17.19 24.4977 16.9181 24.4017 16.6505C24.1288 15.8904 23.668 15.2654 23.0194 14.7753C22.7045 14.538 22.3253 14.3549 21.8817 14.2262C21.6795 14.1677 21.4593 14.1342 21.2211 14.1257C20.9136 14.1148 20.6897 14.1198 20.5497 14.1408C20.1678 14.1977 19.7765 14.3327 19.3757 14.5459ZM40.5756 14.1783C40.3455 14.2177 40.1487 14.3261 39.9598 14.3903C39.8181 14.4387 39.7188 14.4783 39.6619 14.5089C39.4359 14.6308 39.2161 14.7881 39.0025 14.9806C38.523 15.4133 38.1733 15.9183 37.9533 16.4955C37.8649 16.7264 37.8067 16.9706 37.7789 17.2281C37.7579 17.4222 37.7533 17.6739 37.765 17.9831C37.7722 18.172 37.8261 18.3288 37.8503 18.5159C37.8536 18.5393 37.8594 18.5624 37.8679 18.585C38.0382 19.0241 38.1995 19.3602 38.3517 19.5931C38.6431 20.0399 39.0395 20.4211 39.5408 20.7368C39.7438 20.8651 39.9622 20.9695 40.1959 21.0498C40.4825 21.1487 40.7174 21.2046 40.9007 21.2175C42.0408 21.2987 43.0846 20.8724 43.8378 20.0357C44.2584 19.5682 44.5406 19.0191 44.6843 18.3882C44.8756 17.5508 44.6843 16.665 44.2671 15.9227C44.1932 15.7907 44.0746 15.6527 44.0128 15.5449C43.9567 15.4476 43.8879 15.3574 43.8063 15.2742C43.414 14.873 43.0503 14.5963 42.7153 14.4442C42.042 14.1374 41.3288 14.0488 40.5756 14.1783ZM23.1968 26.2332L23.1701 26.4518C23.0987 26.4906 23.063 26.5888 23.063 26.7467C23.0626 27.8014 23.0614 28.8563 23.0593 29.9115C23.0593 29.9902 23.067 30.0527 23.0823 30.0991C23.1126 30.19 23.1552 30.2297 23.2101 30.2184C23.5395 30.7936 24.1129 30.7876 24.7032 30.7882C28.1334 30.789 31.5636 30.7892 34.9937 30.7888C35.2585 30.815 35.4268 30.8291 35.4987 30.8312C36.2523 30.8493 37.0691 30.8606 37.949 30.8651C38.1904 30.8663 38.369 30.8469 38.4849 30.8069C38.7093 30.7294 38.8675 30.6465 38.9596 30.5581C39.1493 30.3756 39.2482 30.1789 39.2562 29.9678C39.2599 29.8689 39.2641 28.7548 39.269 26.6256C39.2696 26.424 39.2484 26.1582 39.1981 25.9426C39.137 25.6774 39.1285 25.4195 39.0437 25.1597C38.8492 24.5652 38.7232 24.1985 38.6659 24.0596C38.3208 23.2269 37.854 22.466 37.2655 21.777C37.1767 21.6728 37.0864 21.576 36.9948 21.4864C36.8717 21.3665 36.775 21.2746 36.7048 21.2109C36.17 20.7237 35.5451 20.2958 34.8303 19.9273C34.3749 19.6924 33.8974 19.5053 33.3977 19.366C32.8839 19.2227 32.3801 19.1254 31.8865 19.0742C31.0796 18.991 30.3288 19.0179 29.6341 19.1547C27.9836 19.48 26.5462 20.2605 25.322 21.496C25.0301 21.7899 24.7585 22.1271 24.507 22.5078C24.2354 22.9191 24.0216 23.2955 23.8658 23.637C23.6854 24.0334 23.5104 24.4657 23.3409 24.9339C23.3245 24.9793 23.3366 25.0816 23.3148 25.1476C23.199 25.504 23.1596 25.8659 23.1968 26.2332ZM18.6237 30.7936L20.8742 30.7821C20.9004 30.7268 20.9132 30.6733 20.9123 30.6217C20.9055 29.9484 20.9111 28.8763 20.9293 27.4054C20.9374 26.7592 20.9729 26.2308 21.0359 25.8203C21.1303 25.2007 21.232 24.6802 21.341 24.2588C21.4427 23.864 21.5901 23.4614 21.783 23.0509C21.7851 23.0465 21.7863 23.0417 21.7865 23.0368C21.7867 23.0319 21.7859 23.027 21.7842 23.0224C21.7762 23.0002 21.759 22.9843 21.7328 22.9746C21.7485 22.9673 21.7503 22.9308 21.7382 22.865C21.0423 22.7661 20.3462 22.7663 19.6499 22.8656C19.2522 22.9225 18.8156 23.0515 18.4081 23.1659C18.1776 23.2305 17.8499 23.3776 17.4248 23.6073C17.1397 23.7605 16.9847 23.9191 16.6698 24.1789C16.1972 24.568 15.8204 25.0524 15.5394 25.632C15.3126 26.0998 15.1652 26.492 15.0974 26.8084C15.007 27.2282 14.9608 27.531 14.9588 27.7166C14.9551 28.0799 14.9588 28.7009 14.9697 29.5797C14.9782 30.2887 15.244 30.6186 15.916 30.813C15.9402 30.8198 15.9647 30.8241 15.9893 30.8257C16.3921 30.8528 16.7487 30.8624 17.0591 30.8548C17.4071 30.8463 17.9286 30.8259 18.6237 30.7936ZM40.5774 22.8856C40.5459 22.9021 40.5279 22.9193 40.5235 22.9371L40.4962 22.9807C40.4912 22.9886 40.4883 22.9977 40.4876 23.0071C40.487 23.0165 40.4887 23.026 40.4926 23.0345C40.778 23.6614 40.9723 24.2414 41.0757 24.7747C41.1172 24.9882 41.1465 25.1317 41.1635 25.2051C41.1974 25.3537 41.2155 25.4962 41.218 25.6326C41.2222 25.8802 41.3021 26.0746 41.2918 26.315C41.2833 26.5107 41.294 26.7959 41.3239 27.1705C41.373 27.7748 41.2888 28.5219 41.3033 29.2146C41.3154 29.7817 41.3173 30.2917 41.3088 30.7446C41.3086 30.7547 41.3105 30.7648 41.3142 30.7742C41.318 30.7837 41.3236 30.7923 41.3307 30.7995C41.3377 30.8068 41.3462 30.8126 41.3555 30.8165C41.3649 30.8205 41.3749 30.8226 41.3851 30.8227C41.9199 30.8271 42.4634 30.84 43.0156 30.8614C43.2194 30.8695 43.4435 30.8449 43.6877 30.7876L44.4978 30.7912C44.6976 30.8166 44.895 30.8578 45.0911 30.8572C45.3232 30.8564 45.6207 30.859 45.9836 30.8651C46.3753 30.8717 46.9324 30.6743 47.1655 30.3123C47.2745 30.1431 47.334 30.0035 47.3441 29.8933C47.3893 29.4073 47.403 28.7011 47.3853 27.7748C47.3798 27.489 47.3707 27.2129 47.3041 26.9356C47.1887 26.4581 47.0333 26.0252 46.8379 25.6368C46.7221 25.4068 46.5404 25.1293 46.293 24.8043C46.2111 24.6966 46.0896 24.5688 45.9285 24.4211C45.692 24.2035 45.5563 24.0806 45.5216 24.0523C44.9977 23.6249 44.4064 23.3118 43.7476 23.1133C43.1599 22.9365 42.5887 22.8309 42.0341 22.7966C41.8315 22.7841 41.3429 22.7847 40.5683 22.7984C40.5633 22.7985 40.5584 22.7999 40.554 22.8024C40.5497 22.8049 40.546 22.8085 40.5434 22.8127C40.5407 22.817 40.5392 22.8218 40.5389 22.8268C40.5386 22.8318 40.5395 22.8368 40.5416 22.8414C40.5477 22.8551 40.5596 22.8699 40.5774 22.8856ZM26.1024 42.6596C26.0887 42.6552 26.0758 42.6537 26.0637 42.6554C26.0595 42.6558 26.0555 42.6572 26.052 42.6596C26.0485 42.6619 26.0456 42.665 26.0435 42.6687C26.0415 42.6724 26.0404 42.6766 26.0403 42.6808C26.0403 42.685 26.0412 42.6891 26.0431 42.6929L26.0613 42.731C26.0681 42.8796 26.144 43.0104 26.2889 43.1234C26.3105 43.1402 26.329 43.1607 26.3434 43.1839C26.4148 43.2957 26.4913 43.3898 26.5729 43.4661C26.5893 43.4813 26.603 43.4989 26.6134 43.5182C26.6623 43.6078 26.7359 43.6974 26.8344 43.787C26.8496 43.8006 26.8616 43.8173 26.8696 43.836L26.8829 43.8681C26.8932 43.892 26.9088 43.9132 26.9283 43.9299C27.0742 44.0558 27.1535 44.1993 27.2655 44.3446C27.322 44.4181 27.5749 44.7295 28.0242 45.2789C28.0666 45.3309 28.0944 45.3921 28.1326 45.4363C28.5495 45.9271 28.8864 46.337 29.1431 46.666C29.2908 46.8549 29.5215 47.0947 29.6577 47.2369C29.7756 47.3605 29.8967 47.4682 30.021 47.5603C30.0226 47.5615 30.0245 47.5625 30.0265 47.5633L30.509 47.8085C30.5363 47.8222 30.5655 47.8319 30.5956 47.8376C30.8782 47.8888 31.0384 47.9137 31.0764 47.912C31.2649 47.9044 31.4628 47.8721 31.6703 47.8152C31.8342 47.7704 31.9926 47.6919 32.1456 47.5796C32.3365 47.4396 32.4722 47.3247 32.5525 47.2351C32.9251 46.821 33.3642 46.2969 33.87 45.6627C34.3988 44.9995 35.0541 44.1862 35.8359 43.2227C35.8416 43.2158 35.8773 43.1674 35.9431 43.0774C35.9568 43.0589 35.9729 43.0422 35.9909 43.0277C36.1363 42.9131 36.1958 42.7972 36.1696 42.6802C36.1732 42.6761 36.177 42.6723 36.1811 42.6687C36.2069 42.6517 36.2142 42.6249 36.2029 42.5882C36.1924 42.5534 36.1659 42.5379 36.1235 42.5415C36.023 42.55 35.9389 42.5343 35.8281 42.5349C32.0629 42.5413 28.9449 42.5421 26.4742 42.5373C26.4734 42.5373 26.3702 42.5415 26.1648 42.55C26.1018 42.5524 26.081 42.589 26.1024 42.6596Z" fill="#00F7C8"/>
</svg>
