<svg width="62" height="63" viewBox="0 0 62 63" fill="none" xmlns="http://www.w3.org/2000/svg">
<path d="M26.3603 3.69763C26.5548 3.63466 26.7635 3.56745 26.9863 3.49601C27.2842 3.40075 27.6501 3.3406 28.084 3.31558C28.2907 3.30347 28.5543 3.32022 28.8748 3.36583C29.1916 3.41064 29.4502 3.46493 29.6504 3.5287C30.4108 3.77089 31.0724 4.19472 31.6351 4.80019C31.6363 4.8014 31.7394 4.93339 31.9445 5.19616C32.2115 5.53886 32.3617 5.88337 32.5542 6.30659C32.6432 6.50277 32.6759 6.75767 32.7486 7.00046C32.7577 7.0308 32.7604 7.06298 32.7564 7.09491C32.734 7.27837 32.8176 7.42732 32.817 7.6138C32.8152 7.92865 32.8267 8.07154 32.7752 8.29072C32.7449 8.41968 32.7607 8.55773 32.7316 8.69032C32.6125 9.22354 32.4666 9.64414 32.2938 9.95212C32.0121 10.4547 31.6724 10.8924 31.2748 11.2654C31.0888 11.4402 30.7909 11.6428 30.3812 11.8733C30.2597 11.9419 30.1222 12.0002 29.9688 12.0483C29.8054 12.0997 29.5874 12.2002 29.4046 12.2432C28.3074 12.5011 27.2448 12.3803 26.2168 11.8805C26.1191 11.8329 25.8878 11.6815 25.5229 11.4264C25.0744 11.1124 24.6974 10.6874 24.3919 10.1513C23.763 9.04977 23.6017 7.88424 23.9081 6.65474C23.9315 6.56069 23.9884 6.39035 24.0789 6.14372C24.1487 5.9532 24.2084 5.79417 24.2581 5.66661C24.2665 5.64527 24.2771 5.62479 24.2896 5.60546C24.6431 5.067 24.9862 4.65467 25.3189 4.36849C25.5102 4.2038 25.8406 3.98745 26.31 3.71943C26.3261 3.71057 26.3429 3.70327 26.3603 3.69763Z" fill="#00F7C8"/>
<path d="M21.0455 18.7163L21.1164 18.565C21.1179 18.5619 21.1185 18.5585 21.1181 18.5551C21.1177 18.5517 21.1164 18.5484 21.1143 18.5457C21.1122 18.543 21.1093 18.5408 21.1061 18.5395C21.1028 18.5382 21.0993 18.5378 21.0958 18.5383L20.9892 18.5565C20.9949 18.5072 20.9543 18.5056 20.8675 18.5516C20.6683 18.6564 20.3929 18.7508 20.1949 18.8568C19.9547 18.986 19.7733 19.0845 19.6505 19.1523C19.6021 19.1793 19.5545 19.1989 19.5077 19.211C19.4932 19.2146 19.4794 19.2199 19.4665 19.2267C19.0116 19.4641 18.5716 19.6851 18.1466 19.8897C18.0993 19.9127 18.0358 19.96 17.9558 20.0314C17.9414 20.0442 17.9297 20.0596 17.9213 20.0768C17.8269 20.2694 17.7302 20.4482 17.6313 20.6133C17.5205 20.7985 17.4878 20.9535 17.3897 21.1194C17.2051 21.4306 17.0131 21.8448 16.8938 22.0761C16.2888 23.2466 15.741 24.3165 15.2506 25.2857C15.1289 25.5254 14.914 25.8451 14.679 26.0147C14.3057 26.2847 13.9032 26.4084 13.4717 26.3858C13.0592 26.3636 12.6998 26.2348 12.3934 25.9995C12.0555 25.7398 11.7474 25.2348 11.6886 24.7819C11.6422 24.4223 11.6672 24.1189 11.7637 23.8719C11.8307 23.6999 12.0033 23.3397 12.2814 22.7911C12.5502 22.2607 12.8687 21.6347 13.0461 21.3089C13.2245 20.982 13.3597 20.7267 13.4518 20.543C13.6229 20.2007 13.7599 19.9464 13.8629 19.7801C13.9422 19.6506 13.993 19.4944 14.0748 19.3406C14.3965 18.7367 14.7323 18.0899 15.0823 17.4C15.1582 17.2511 15.3023 17.0931 15.5146 16.926C15.5671 16.8848 15.7572 16.7819 16.0849 16.6172C16.4345 16.442 16.7778 16.2743 17.1148 16.114C17.2376 16.0555 17.3433 15.9984 17.4321 15.9427C17.5665 15.8585 17.7124 15.8258 17.8711 15.7411C17.9684 15.6894 18.2442 15.5483 18.6988 15.3178C18.8259 15.2533 18.9048 15.2157 18.9355 15.2052C19.0414 15.1677 19.1171 15.1065 19.2443 15.0411C19.3387 14.9927 19.5658 14.8839 19.9254 14.7148C20.1888 14.5907 20.4237 14.4375 20.6913 14.3309C20.7551 14.3051 20.921 14.2205 21.189 14.0772C21.605 13.8538 22.0609 13.6716 22.4478 13.4433C22.4619 13.4349 22.4772 13.4283 22.4932 13.4239L22.5774 13.4015C22.5947 13.3967 22.6116 13.3898 22.6276 13.3809C23.1726 13.0835 23.5851 12.8845 23.8652 12.7839C23.9088 12.7682 24.0691 12.7436 24.346 12.7101C24.3703 12.7069 24.395 12.7085 24.4186 12.7149C24.4687 12.7282 24.5787 12.7414 24.7486 12.7543C24.9456 12.7692 25.1712 12.8298 25.4255 12.9359C25.4452 12.944 25.4657 12.9499 25.4867 12.9535C25.6429 12.9789 25.7714 13.0084 25.8723 13.0419C26.0088 13.0871 26.1107 13.1135 26.1781 13.1212C26.2895 13.1333 26.4264 13.2084 26.5783 13.2483C27.1216 13.3924 27.4133 13.4718 27.4532 13.4863C27.8286 13.6243 28.1253 13.8411 28.4002 14.1953C28.5394 14.3745 28.6478 14.5184 28.7253 14.627C29.1766 15.2599 29.5514 15.7744 29.8497 16.1703C29.9486 16.3019 30.0255 16.4131 30.0804 16.5039C30.173 16.6589 30.2868 16.7728 30.4073 16.9387C30.4638 17.0166 30.5789 17.1841 30.7524 17.4412C30.8517 17.5889 30.9805 17.7607 31.1387 17.9565C31.2037 18.0368 31.331 18.2102 31.5208 18.4766C31.551 18.5196 31.6067 18.5728 31.6291 18.6406C31.6351 18.6593 31.6459 18.6762 31.6606 18.6897C31.7494 18.7708 31.8336 18.8713 31.9131 18.9912C31.9216 19.0037 31.9311 19.0151 31.9416 19.0251C32.0489 19.1272 32.1827 19.1898 32.343 19.2128C32.6175 19.252 32.8819 19.2707 33.1362 19.2691C35.0922 19.2582 36.6568 19.2586 37.8297 19.2703C38.1244 19.2732 38.4068 19.3583 38.6768 19.5258C38.9476 19.6938 39.1618 19.9065 39.3192 20.164C39.4843 20.434 39.5789 20.7206 39.6032 21.0238C39.6447 21.5509 39.4778 22.0333 39.1024 22.4708C39.0621 22.5181 38.9618 22.6036 38.8015 22.7276C38.3232 23.0987 37.8328 23.0866 37.2515 23.0836C36.3026 23.0783 34.138 23.0818 30.7579 23.0939C30.2717 23.0957 29.8739 22.7584 29.6111 22.3691C29.5106 22.2198 29.2644 21.8613 28.8724 21.2938C28.8123 21.2062 28.7647 21.1324 28.7296 21.0722C28.6569 20.9487 28.5503 20.8433 28.4789 20.7362C28.2524 20.3953 28.0974 20.1464 27.874 19.92C27.8579 19.9036 27.8376 19.8919 27.8153 19.8862C27.793 19.8805 27.7696 19.8809 27.7475 19.8875C27.7255 19.8941 27.7057 19.9066 27.6902 19.9236C27.6747 19.9407 27.6642 19.9616 27.6597 19.9842C27.6343 20.1129 27.5685 20.3638 27.4623 20.7368C27.1172 21.9497 26.7567 23.1788 26.3809 24.4241C26.3258 24.6075 26.3155 24.7353 26.2368 24.9012C26.2086 24.9605 26.1838 25.0622 26.1624 25.2063C26.1616 25.2116 26.1603 25.2166 26.1587 25.2215L25.9165 26.0044C25.9114 26.0211 25.9117 26.0389 25.9174 26.0555C25.923 26.072 25.9338 26.0863 25.948 26.0964C26.0219 26.1485 26.0479 26.1854 26.1436 26.232C27.1721 26.737 27.824 27.0631 28.0993 27.2105C28.9792 27.6803 29.6345 28.021 30.0652 28.2325C30.3583 28.3766 30.5613 28.4995 30.6743 28.6012C31.0467 28.9366 31.3579 29.2787 31.4887 29.7686C31.5286 29.9175 31.5642 30.0321 31.5952 30.1125C31.6021 30.1301 31.6063 30.1487 31.6079 30.1676C31.61 30.1877 31.611 30.2786 31.611 30.44C31.6126 33.4331 31.6146 35.8715 31.617 37.7553C31.6174 38.0956 31.591 38.3571 31.5377 38.54C31.3815 39.0752 31.077 39.5097 30.6241 39.8436C30.3455 40.0494 30.0186 40.1184 29.728 40.1802C29.7083 40.1842 29.6879 40.186 29.6674 40.1856L29.0607 40.1699C29.0487 40.1695 29.0367 40.1677 29.025 40.1645L28.6502 40.0567C28.6418 40.0543 28.6337 40.0508 28.626 40.0464C28.4432 39.935 28.2773 39.8502 28.1198 39.7134C27.7909 39.428 27.562 39.0867 27.4332 38.6895C27.3541 38.4465 27.3182 38.1404 27.3255 37.771C27.3344 37.3149 27.3392 37.0711 27.34 37.0396C27.3594 36.3343 27.3394 35.684 27.3485 34.952C27.3638 33.7176 27.3666 32.7961 27.357 32.1874C27.3549 32.0473 27.3378 31.9194 27.3055 31.8035C27.3 31.7833 27.2903 31.7645 27.2772 31.7482C27.2641 31.732 27.2477 31.7186 27.2292 31.7091L22.6155 29.3138C22.5946 29.303 22.5727 29.2935 22.5501 29.2854L22.5072 29.2672C22.4923 29.2609 22.4762 29.2582 22.4601 29.2591C22.4439 29.26 22.4283 29.2647 22.4142 29.2726C22.4002 29.2806 22.3882 29.2917 22.3791 29.305C22.37 29.3183 22.3641 29.3336 22.3618 29.3496L21.4881 35.6253C21.4825 35.6655 21.4717 35.7047 21.4561 35.7421C21.3434 36.0126 21.2361 36.2398 21.1339 36.4239C20.6633 37.2707 20.3101 37.9176 20.0744 38.3644C19.9926 38.5194 19.8964 38.6247 19.8407 38.7725C19.8286 38.804 19.8001 38.8599 19.7553 38.9402C19.4614 39.4613 19.1862 39.9653 18.9294 40.4521C18.746 40.8002 18.6134 41.0018 18.4021 41.3948C18.0089 42.1246 17.7461 42.6037 17.6138 42.8321C17.5924 42.8693 17.5657 42.9088 17.5338 42.9508C17.5258 42.9617 17.5187 42.973 17.5126 42.9847C17.216 43.5854 16.7504 44.3355 16.4252 44.9822C16.2775 45.2752 16.1267 45.4964 15.9729 45.6458C15.6629 45.9481 15.297 46.1459 14.8752 46.2391C14.6952 46.2791 14.5428 46.2886 14.4181 46.2676C14.0827 46.2107 13.7394 46.1774 13.4281 45.9945C12.8094 45.6316 12.4612 45.0823 12.3837 44.3464C12.3575 44.0986 12.4013 43.8005 12.5151 43.4521C12.5643 43.3012 12.7076 43.032 12.945 42.6445C13.008 42.5415 13.0643 42.4174 13.1151 42.3248C13.4469 41.7233 13.7226 41.217 13.9422 40.8056C14.343 40.0533 14.7947 39.231 15.2972 38.339C15.3654 38.2175 15.4684 38.027 15.606 37.7674C15.7531 37.4895 15.9408 37.1983 16.0801 36.9313C16.2516 36.6031 16.5098 36.1171 16.8545 35.4733C17.0246 35.1554 17.1439 34.8121 17.1978 34.4198C17.3084 33.6113 17.38 33.0835 17.4127 32.8365C17.4339 32.6778 17.4382 32.4399 17.466 32.2564C17.5383 31.7749 17.5881 31.4068 17.6156 31.1521C17.6301 31.0201 17.6894 30.8348 17.7076 30.681C17.8565 29.4107 18.0588 27.8619 18.3143 26.0346C18.3615 25.6956 18.4317 25.4588 18.5801 25.1234C18.6879 24.88 18.7841 24.639 18.8689 24.4005C18.9468 24.1813 19.0152 24.0103 19.0741 23.8876C19.1704 23.6854 19.237 23.4499 19.3387 23.1986C19.522 22.7441 19.6794 22.3631 19.811 22.0555C19.905 21.8359 20.057 21.4528 20.2669 20.9063C20.4413 20.4526 20.6241 19.9923 20.8155 19.5252C20.9584 19.1765 21.0552 18.9295 21.1061 18.7841C21.1158 18.7563 21.115 18.7373 21.1037 18.7272C21.0928 18.7171 21.0734 18.7135 21.0455 18.7163Z" fill="#00F7C8"/>
<path d="M26.3391 42.1205C26.3407 42.1177 26.3587 42.0967 26.393 42.0576C26.6552 41.756 26.904 41.7276 27.3067 41.7439C28.0229 41.773 28.7689 41.727 29.3846 41.7264C30.5128 41.7252 31.3474 41.7239 31.8882 41.7227C32.5143 41.7209 33.4261 41.7585 34.1473 41.7312C34.3398 41.7239 34.4379 41.6089 34.5977 41.5235C34.7685 41.4315 34.7818 41.2565 34.8526 41.0991C34.8606 41.081 34.8658 41.062 34.8678 41.0428C34.877 40.9487 34.8817 40.8656 34.8817 40.7933C34.8902 37.9771 34.8908 35.8239 34.8835 34.3336C34.8811 33.8304 35.2431 33.5967 35.7112 33.6137C35.9772 33.623 36.2615 33.6254 36.5643 33.621C37.639 33.6046 38.7512 33.6197 39.7036 33.6137C40.0274 33.6117 40.2243 33.6163 40.2946 33.6276C40.4163 33.6476 40.5313 33.624 40.6615 33.6252C41.0704 33.6296 41.5499 33.6236 42.1001 33.607C42.1362 33.6058 42.1713 33.595 42.2018 33.5755C42.245 33.5485 42.2882 33.5322 42.3314 33.5265C42.3527 33.5241 42.3729 33.5157 42.3895 33.5023L42.5954 33.337C42.6124 33.3235 42.6258 33.306 42.6341 33.2861C42.7249 33.0779 42.7703 32.921 42.7703 32.8157C42.7699 29.2503 42.7691 27.2417 42.7679 26.7901C42.7667 26.4268 42.7734 26.2171 42.7879 26.161C42.8416 25.9523 42.9564 25.7799 43.1324 25.6439C43.1881 25.6012 43.2564 25.5783 43.3262 25.5791C44.8414 25.5916 46.7866 25.5943 49.1617 25.587C49.6261 25.5858 49.9312 25.6233 50.0717 26.0689C50.0769 26.0862 50.0796 26.1042 50.0796 26.1222C50.0787 27.5257 50.0802 28.7631 50.0838 29.8344C50.0903 31.681 50.0864 32.9691 50.0723 33.6985C50.0703 33.7949 50.0693 33.8454 50.0693 33.8498C50.0741 34.0553 50.0779 34.8321 50.0808 36.1803C50.086 38.3204 50.0844 40.1875 50.0759 41.7815C50.0723 42.488 50.0838 43.1014 50.0802 43.762C50.0765 44.4211 50.0775 44.7658 50.0832 44.7961C50.0836 44.7973 50.0816 44.9136 50.0771 45.1448C50.0743 45.2966 50.0743 45.425 50.0771 45.5299C50.0852 45.8327 50.0864 46.4783 50.0808 47.4668C50.0775 48.1171 50.0777 48.612 50.0814 48.9514C50.0917 49.8766 50.0693 50.6467 50.0814 51.4968C50.0915 52.1693 50.0943 52.5233 50.0898 52.5588C50.0822 52.6254 50.0822 52.7943 50.0898 53.0656C50.0919 53.1455 50.0939 53.3142 50.0959 53.5718C50.0983 53.8495 50.0539 54.0608 49.9627 54.2057C49.842 54.3974 49.6624 54.5131 49.4238 54.5526C49.4198 54.5534 49.4159 54.5538 49.4123 54.5538L18.9579 54.5514C18.9298 54.5514 18.9022 54.5469 18.8761 54.5381C18.6355 54.4578 18.4626 54.3112 18.3572 54.0985C18.2898 53.9621 18.2577 53.7391 18.261 53.4295C18.2678 52.7102 18.2707 51.7269 18.2694 50.4796C18.2694 49.9936 18.4725 49.6715 18.8785 49.5133C19.0093 49.4624 19.2757 49.434 19.4622 49.4443C19.8852 49.4665 20.2396 49.4739 20.5254 49.4667C20.8302 49.459 20.9916 49.455 21.0098 49.4546C22.1319 49.4392 23.0401 49.4378 23.7344 49.4503C24.6527 49.4669 25.2769 49.4632 25.6071 49.4394C25.6159 49.4386 25.6243 49.4362 25.6319 49.4322L26.0073 49.2457C26.0287 49.235 26.0469 49.2189 26.06 49.1991C26.173 49.0295 26.2326 48.8757 26.2386 48.7377C26.2544 48.3906 26.2612 48.0886 26.2592 47.8319C26.2491 46.6165 26.2481 45.41 26.2562 44.2124C26.2602 43.6239 26.2594 43.0233 26.2538 42.4105C26.253 42.3075 26.2827 42.2066 26.3391 42.1205Z" fill="#00F7C8"/>
</svg>
