<svg width="34" height="34" viewBox="0 0 34 34" fill="none" xmlns="http://www.w3.org/2000/svg">
<circle cx="17.2001" cy="17.1456" r="16.7999" fill="white"/>
<path d="M17.2 0.345703C7.92153 0.345703 0.400024 7.8672 0.400024 17.1457C0.400024 26.4242 7.92153 33.9457 17.2 33.9457C26.4785 33.9457 34 26.4242 34 17.1457C34 7.8672 26.4785 0.345703 17.2 0.345703ZM21.1795 11.9552H18.6543C18.355 11.9552 18.0225 12.349 18.0225 12.8722V14.6957H21.1813L20.7035 17.2962H18.0225V25.103H15.0423V17.2962H12.3385V14.6957H15.0423V13.1662C15.0423 10.9717 16.5648 9.18845 18.6543 9.18845H21.1795V11.9552Z" fill="#00F7C8"/>
</svg>
