<svg width="62" height="63" viewBox="0 0 62 63" fill="none" xmlns="http://www.w3.org/2000/svg">
<path d="M56.6905 12.764L56.6942 16.2926L56.696 16.7685L56.7184 16.9653C56.7197 16.9771 56.7238 16.9885 56.7304 16.9985C56.7371 17.0085 56.746 17.0168 56.7565 17.0228C57.2421 17.3068 57.3929 17.8172 57.3366 18.3615C57.3196 18.5274 57.2219 18.7058 57.0435 18.8968C57.0357 18.9052 57.0296 18.915 57.0258 18.9258C57.0219 18.9365 57.0203 18.9478 57.0211 18.9591C57.0235 18.9975 57.0367 19.0721 57.0605 19.1831C57.2887 20.2439 57.5273 21.2466 57.7216 22.3564C57.744 22.4878 57.7792 22.6852 57.7216 22.8184C57.6272 23.0359 57.468 23.1502 57.2439 23.1611C56.5638 23.1938 55.808 23.2071 54.9764 23.201C54.7391 23.1992 54.4975 23.1496 54.3595 22.9395C54.236 22.7522 54.1994 22.5374 54.2499 22.2953C54.4493 21.341 54.6424 20.4363 54.8293 19.5809C54.8753 19.3702 54.9486 19.1747 54.9837 18.9791C54.9892 18.9502 54.984 18.9203 54.9692 18.8949C54.6271 18.2955 54.5889 17.4963 55.1696 17.0567C55.1916 17.0402 55.2094 17.0188 55.2217 16.9941C55.234 16.9694 55.2404 16.9421 55.2404 16.9145V12.6798C55.2405 12.6768 55.2398 12.6739 55.2384 12.6713C55.237 12.6686 55.235 12.6664 55.2325 12.6648C55.2301 12.6631 55.2272 12.6622 55.2242 12.6619C55.2213 12.6617 55.2183 12.6622 55.2156 12.6635L51.9994 14.0942C51.9679 14.0756 51.9406 14.0673 51.9176 14.0694C51.9073 14.0701 51.8971 14.0729 51.8879 14.0777C51.8787 14.0825 51.8705 14.089 51.864 14.097C51.8574 14.105 51.8525 14.1143 51.8497 14.1242C51.8468 14.1341 51.846 14.1445 51.8474 14.1547C51.8837 14.4435 51.8807 14.6397 51.9303 14.9122C51.9582 15.0654 51.9273 15.2706 51.9642 15.448C51.9832 15.538 51.9935 15.5947 51.9951 15.6181C52.0302 16.197 52.053 16.5562 52.0635 16.6959C52.0817 16.9465 52.0579 17.1429 51.9921 17.285C51.9759 17.3193 51.9707 17.3577 51.977 17.3952C52.0333 17.7349 52.1017 18.0001 52.1429 18.3034C52.1723 18.5226 52.2044 18.8552 52.2391 19.3012C52.2682 19.676 52.1986 20.0914 52.1501 20.5079C52.0133 21.6825 51.6663 22.8929 51.0651 23.9094C50.804 24.351 50.6542 24.5997 50.6159 24.6554C50.212 25.2457 49.7833 25.681 49.0574 26.3888C48.7861 26.6532 48.5264 26.8613 48.2781 27.0131C47.7429 27.3404 47.3324 27.5707 47.0466 27.7039C45.8966 28.2404 44.6867 28.4922 43.4168 28.4595C42.8889 28.4462 42.2713 28.4038 41.7415 28.2821C40.4712 27.9895 39.3087 27.4407 38.254 26.6359C38.2257 26.6145 38.0693 26.4768 37.7848 26.2229C37.6116 26.0687 37.461 25.9196 37.3331 25.7755C36.836 25.2185 36.4273 24.7141 36.0495 24.1201C35.9639 23.9853 35.8598 23.7714 35.7371 23.4783C35.7326 23.4674 35.6178 23.2047 35.3926 22.69C35.3724 22.644 35.2828 22.3576 35.1237 21.8309C35.0357 21.5402 34.9758 21.2474 34.9439 20.9523C34.8939 20.4877 34.8632 20.1115 34.8519 19.8237C34.8373 19.4447 34.8761 19.0954 34.8682 18.7823C34.8591 18.4287 34.9488 18.0873 35.0111 17.7373C35.041 17.5694 35.0525 17.4481 35.0456 17.3734C35.022 17.13 34.9397 16.9011 34.9621 16.6305C35.0097 16.065 35.0902 15.2365 35.2037 14.145C35.2056 14.1298 35.2022 14.1144 35.194 14.1014C35.1508 14.0336 35.1005 13.985 35.0432 13.9555C34.7598 13.8082 34.4341 13.6568 34.066 13.5014C33.3037 13.1787 32.6383 12.853 31.9898 12.5793C31.1779 12.2354 30.5185 11.9084 29.6594 11.5264C29.3609 11.3932 29.0836 11.283 29.1096 10.9009C29.1245 10.6846 29.2279 10.5256 29.4196 10.4238C29.6 10.3282 29.8166 10.2269 30.0693 10.1199C31.2132 9.63632 32.2252 9.19251 33.1051 8.78846C33.3877 8.65849 33.6577 8.54244 33.9152 8.44032C34.3172 8.28108 34.64 8.09701 34.9893 7.962C35.0596 7.93455 35.6333 7.68974 36.7107 7.22756C37.0639 7.07579 37.3317 6.95591 37.5141 6.86791C37.8659 6.69778 38.1892 6.58637 38.5943 6.40715C39.8298 5.85981 40.6819 5.48886 41.1506 5.2943C41.9425 4.96614 42.723 4.61073 43.527 4.26198C43.5335 4.25929 43.5406 4.25796 43.5476 4.25806C43.5547 4.25817 43.5617 4.2597 43.5682 4.26258C44.4756 4.67309 45.6359 5.19258 47.049 5.82106C47.2791 5.92338 47.5219 6.01178 47.7054 6.09655C48.1833 6.31815 48.6901 6.5452 49.2257 6.7777C51.1543 7.61325 52.9493 8.40278 54.6107 9.14629C55.0301 9.33399 55.2592 9.4355 55.2979 9.45084C55.9228 9.70272 56.2128 9.8553 56.8831 10.1229C57.1818 10.2424 57.4728 10.3762 57.7562 10.5243C57.891 10.5946 57.9616 10.7157 57.9681 10.8876C57.9769 11.1193 57.8706 11.283 57.649 11.3787C57.2982 11.53 56.9888 11.6711 56.7208 11.8019C56.7118 11.8062 56.7038 11.8126 56.6975 11.8206C56.6912 11.8286 56.6868 11.8379 56.6845 11.8479C56.6155 12.1575 56.6175 12.4628 56.6905 12.764ZM36.9619 17.328L36.8427 17.4C36.822 17.4125 36.8065 17.4321 36.7991 17.4551C36.4487 18.5571 36.3629 19.679 36.5417 20.8209C36.5599 20.9372 36.5918 21.072 36.6374 21.2254C36.7391 21.5681 36.8063 21.8835 36.9498 22.2153C37.3313 23.0951 37.8429 23.9179 38.5162 24.6069C38.8173 24.9149 39.0286 25.1159 39.1501 25.21C39.6918 25.6306 40.2854 25.9801 40.9308 26.2587C41.3562 26.4423 41.7595 26.5634 42.1405 26.6219C42.3774 26.6583 42.5125 26.6795 42.5456 26.6855C42.7333 26.7186 42.8681 26.74 42.95 26.7497C43.6734 26.8324 44.3908 26.7834 45.1025 26.6026C47.382 26.0231 49.15 24.3775 50.0594 22.2178C50.3095 21.625 50.4506 20.9959 50.5299 20.4262C50.5791 20.0722 50.5854 19.6086 50.5487 19.0354C50.5081 18.4063 50.4336 17.8917 50.1957 17.3419C50.1898 17.3284 50.18 17.3169 50.1676 17.309C50.1552 17.3011 50.1407 17.2972 50.126 17.2977C49.772 17.3102 49.3956 17.3399 48.9968 17.3867C48.3744 17.46 47.5704 17.529 46.8989 17.5883C46.6636 17.6093 46.4926 17.6281 46.3861 17.6447C45.9537 17.7119 45.5614 17.7161 45.1019 17.7718C44.7095 17.8196 44.3196 17.8281 43.897 17.8856C43.6342 17.9211 43.4746 17.9357 43.418 17.9292C42.599 17.838 41.8374 17.7629 41.133 17.704C40.8938 17.684 40.6014 17.6156 40.3901 17.5992C39.5949 17.5367 38.7838 17.4531 37.9567 17.3486C37.8582 17.3365 37.5515 17.3231 37.0364 17.3086C37.0103 17.3078 36.9845 17.3146 36.9619 17.328Z" fill="#00F7C8"/>
<path d="M15.3184 8.22771L15.0496 8.27433C15.0481 8.27452 15.0466 8.27504 15.0453 8.27586C15.044 8.27669 15.0429 8.27779 15.042 8.2791C15.0412 8.28041 15.0406 8.28191 15.0403 8.28348C15.0401 8.28506 15.0401 8.28668 15.0405 8.28825L15.0453 8.30702C15.0462 8.30998 15.048 8.31257 15.0504 8.31442C15.0528 8.31627 15.0557 8.31728 15.0586 8.31731L15.5188 8.30642C15.5477 8.30602 15.5765 8.31031 15.6042 8.31913C15.7152 8.35546 16.0534 8.42368 16.6189 8.52378C16.8611 8.56697 17.1709 8.64285 17.5483 8.75144C17.8099 8.82712 17.9806 8.91128 18.2174 8.97909C18.3409 9.01421 18.5068 9.07597 18.7151 9.16437C19.2705 9.39969 19.8047 9.67175 20.3177 9.98054C20.6768 10.1973 21.057 10.4855 21.4554 10.7555C21.5515 10.8205 21.7931 11.0357 22.1802 11.401C22.2649 11.4809 22.3921 11.5566 22.446 11.6201C22.5275 11.715 22.7152 11.9132 23.0091 12.2147C23.5522 12.7724 24.016 13.4196 24.4701 14.1008C24.7732 14.5549 25.1098 15.1466 25.48 15.876C25.528 15.9708 25.6856 16.3503 25.9528 17.0143C26.1411 17.4817 26.3046 18.0623 26.4112 18.4656C26.5424 18.9596 26.6901 19.7106 26.8544 20.7185C26.9034 21.02 26.8701 21.2931 26.9077 21.5837C26.9597 21.99 26.9337 22.5664 26.9295 22.9164C26.9264 23.167 26.8804 23.3699 26.8792 23.5757C26.8784 23.6883 26.8623 23.853 26.8308 24.0698C26.7781 24.4349 26.7454 24.6747 26.6752 24.981C26.5153 25.6809 26.4039 26.3869 26.1835 27.0947C26.144 27.2207 26.0955 27.416 26.0382 27.6808C25.8408 28.5898 25.7248 29.1087 25.6901 29.2375C25.6049 29.5535 25.5286 29.9438 25.4612 30.4084C25.4184 30.7015 25.3456 31.0936 25.2426 31.5849C25.124 32.1504 24.9847 32.6711 24.9054 33.2753C24.8127 33.9771 24.5566 35.0185 24.5136 35.8667C24.4995 36.144 24.5126 36.3725 24.553 36.5521C24.6117 36.8173 24.7359 37.2672 24.9102 37.6347C25.2566 38.3633 25.5702 39.0087 25.8511 39.571C26.3012 40.4723 26.5399 40.9547 26.5674 41.0181C26.7842 41.523 27.0445 41.9789 27.3012 42.5596C27.3999 42.7836 27.5137 42.9041 27.7632 42.9023C28.2665 42.8987 28.6821 42.8882 29.0099 42.8708C29.9937 42.8175 30.8644 42.8702 31.795 42.8448C32.2873 42.8308 32.834 42.7727 33.2578 42.7981C33.9973 42.8425 34.6776 42.8625 35.2989 42.8581C36.1326 42.8514 36.8016 42.8387 37.4937 42.8781C37.6176 42.8853 37.7982 42.89 38.0356 42.892C39.585 42.9077 40.6064 43.9982 41.089 45.3871C41.2314 45.7964 41.314 46.0515 41.3366 46.1524C41.6151 47.3908 41.5988 48.6205 41.2875 49.8416C41.023 50.8812 40.6131 51.6949 39.8199 52.4015C39.2822 52.8798 38.6624 53.1091 37.9605 53.0893C37.7353 53.0828 37.4454 53.0832 37.091 53.0905C37.0658 53.091 37.0409 53.0849 37.0189 53.0728C36.9969 53.0607 36.9786 53.043 36.9657 53.0215L36.5697 52.3646C36.5588 52.3465 36.5528 52.3258 36.5523 52.3046C36.5517 52.2833 36.5567 52.2623 36.5667 52.2435L36.9415 51.5399C36.9477 51.5283 36.957 51.5186 36.9683 51.5121C36.9797 51.5056 36.9926 51.5024 37.0057 51.503C37.3538 51.5048 37.8812 51.5163 38.3577 51.4206C39.0255 51.2868 39.4748 50.6711 39.7236 50.0486C40.0657 49.1937 40.2165 48.2673 40.0911 47.3555C40.0782 47.2598 40.0453 47.056 39.9925 46.744C39.8278 45.7698 39.077 44.3942 37.9242 44.3887C35.8856 44.3802 33.807 44.393 31.7417 44.3808C31.3922 44.3788 31.0208 44.4043 30.6277 44.4571C30.4715 44.4777 30.309 44.5181 30.1403 44.5782C28.9733 44.9916 28.0532 45.7403 27.3799 46.8245C27.3749 46.8327 27.3676 46.8392 27.3589 46.8432C27.3502 46.8472 27.3405 46.8486 27.3311 46.8471C27.3216 46.8456 27.3128 46.8413 27.3058 46.8348C27.2987 46.8283 27.2938 46.8199 27.2915 46.8106L26.6988 44.4795C26.6948 44.4634 26.6861 44.4489 26.6738 44.4378C26.6615 44.4267 26.6462 44.4195 26.6298 44.4172C26.3585 44.3788 26.1551 44.3611 26.0194 44.3639C24.9611 44.3857 23.9623 44.3897 23.023 44.376C22.3212 44.3657 21.5795 44.399 20.8033 44.3778C19.8762 44.3524 18.7694 44.3572 17.4829 44.3923C17.2965 44.3972 16.7509 44.3885 15.8464 44.3663C15.5448 44.359 15.1198 44.3911 14.7565 44.3887C13.747 44.381 13.0219 44.3758 12.5811 44.373C12.4414 44.3722 12.2933 44.4036 12.1367 44.4674L12.0567 44.4801C12.0257 44.4987 12.0057 44.5257 11.9968 44.5613C11.9921 44.5798 11.9934 44.5991 12.0004 44.6164C12.1899 45.0977 12.4345 45.5349 12.5417 45.9981C12.7149 46.7458 12.7966 47.5686 12.77 48.3249C12.7627 48.5259 12.746 48.6999 12.7197 48.8468C12.6705 49.1221 12.6434 49.2952 12.6386 49.3663C12.6228 49.6036 12.5399 49.7871 12.4981 50.042C12.437 50.4174 12.216 50.846 12.0634 51.1887C12.0595 51.1972 12.0579 51.2066 12.0588 51.2159C12.0596 51.2253 12.0629 51.2343 12.0682 51.242L12.1167 51.3141L12.0646 51.4073C12.0626 51.411 12.0616 51.4151 12.0617 51.4193C12.0618 51.4235 12.063 51.4276 12.0651 51.4312C12.0672 51.4348 12.0702 51.4377 12.0739 51.4398C12.0775 51.4419 12.0816 51.443 12.0858 51.443C17.7414 51.4712 26.568 51.4424 26.568 51.4424C26.5636 51.4658 26.5525 51.4777 26.5347 51.4781C24.1128 51.5048 21.0703 51.4769 18.0902 51.4903C16.7905 51.4955 14.789 51.4937 12.0858 51.4848C12.0822 51.4848 12.0786 51.4856 12.0753 51.4872C12.072 51.4888 12.0692 51.4911 12.067 51.4939C12.0647 51.4968 12.0632 51.5002 12.0625 51.5037C12.0617 51.5073 12.0619 51.511 12.0628 51.5145L12.0688 51.5375C12.0705 51.5436 12.074 51.549 12.0789 51.5528C12.0839 51.5567 12.0899 51.5587 12.0961 51.5587L26.631 51.5593C26.6572 51.5593 26.683 51.5665 26.7053 51.5801C26.7276 51.5936 26.7457 51.613 26.7575 51.6362L26.9973 52.1066C26.9993 52.1106 27.0019 52.1143 27.0052 52.1175C27.0988 52.2148 27.1388 52.3157 27.125 52.4203C27.1242 52.4258 27.1222 52.4312 27.119 52.436L26.7781 52.99C26.7757 52.994 26.7724 52.9973 26.7684 52.9997C26.6187 53.1006 26.435 53.1519 26.2174 53.1535C24.8031 53.1628 23.4115 53.1624 22.0427 53.1523C21.9636 53.1515 20.4524 53.1513 17.509 53.1517C17.5029 53.1517 15.3154 53.1498 10.9463 53.1462C10.2012 53.1454 9.74869 53.1238 9.58884 53.0814C9.13636 52.9611 8.74583 52.7183 8.41726 52.353C8.03985 51.9333 7.72743 51.4148 7.48 50.7976C7.41016 50.6232 7.34074 50.397 7.27171 50.1189C7.16717 49.6963 7.11308 49.466 7.10945 49.428C7.08684 49.1786 7.05375 48.8579 7.01015 48.4659C6.97786 48.1773 6.97584 47.8562 7.0041 47.5026C7.10582 46.219 7.36435 45.0693 8.08728 44.0369C8.30364 43.7281 8.56237 43.4734 8.86349 43.2728C9.15169 43.0811 9.48026 42.9225 9.84919 42.7969C9.99128 42.759 10.1842 42.7517 10.428 42.7751C10.4426 42.7679 10.4641 42.7661 10.4928 42.7697C10.4977 42.7693 10.5023 42.7691 10.5067 42.7691H10.6284L10.8204 42.7697H11.0371L22.0367 42.7715L22.1172 42.7691L22.7287 42.7648C22.7389 42.7648 22.7489 42.7624 22.758 42.7578C22.767 42.7532 22.7749 42.7466 22.781 42.7385C22.787 42.7304 22.7911 42.721 22.7929 42.7111C22.7946 42.7011 22.794 42.6909 22.7911 42.6813L22.7529 42.5535C22.8014 42.4801 22.8066 42.3971 22.7687 42.3047C22.6476 42.0092 22.5192 41.7285 22.3836 41.4625C22.3037 41.3067 22.2597 41.1898 22.2516 41.1119C22.2508 41.1039 22.2488 41.0959 22.2456 41.0883L22.0215 40.6015C22.0191 40.5967 22.0165 40.592 22.0137 40.5876C21.8756 40.3908 21.7836 40.0844 21.6595 39.8816C21.4213 39.4921 21.2437 39.2275 21.1267 39.0878C20.8219 38.7242 20.4199 38.3542 19.9206 37.978C19.1008 37.3604 18.1187 36.781 17.1312 36.2603C16.4454 35.8986 15.4197 35.3906 14.0542 34.7363C13.8382 34.6326 13.66 34.543 13.5195 34.4675C13.3637 34.3835 13.2293 34.3208 13.1163 34.2792C12.7821 34.1551 12.4491 33.9607 12.1403 33.833C11.8396 33.7082 11.6283 33.6094 11.5064 33.5363C11.2672 33.3934 10.9445 33.2856 10.6666 33.1337C9.8714 32.6997 9.28954 32.3599 8.92101 32.1141C8.81203 32.0414 8.48144 31.7956 7.92925 31.3766C7.72884 31.2246 7.55386 31.0406 7.34498 30.8783C7.12701 30.7079 6.838 30.4377 6.47794 30.0676C5.80264 29.3737 5.1994 28.634 4.6682 27.8485C4.50836 27.6124 4.3808 27.4108 4.28554 27.2437C4.12691 26.9639 3.95375 26.723 3.80359 26.4033C3.69097 26.1623 3.5499 25.8767 3.38037 25.5465C3.3283 25.4448 3.229 25.2107 3.08248 24.8442C2.92808 24.4579 2.80214 23.9033 2.6647 23.5418C2.61384 23.4074 2.58397 23.3063 2.57509 23.2385C2.55875 23.1083 2.49638 22.9757 2.47882 22.8268C2.4431 22.5289 2.3432 22.1159 2.31111 21.7442C2.30707 21.6941 2.29032 21.5656 2.26086 21.3585C2.20959 20.9948 2.19446 20.5865 2.21545 20.1336C2.22755 19.8652 2.23341 19.6953 2.233 19.6238C2.22998 19.2606 2.29779 19.0468 2.32685 18.692C2.33654 18.5725 2.36096 18.4313 2.40011 18.2682C2.40655 18.242 2.41041 18.2152 2.41162 18.1883C2.41888 18.0357 2.42574 17.9414 2.4322 17.9055C2.45198 17.7986 2.49719 17.6438 2.56783 17.4411C2.71011 17.033 2.83908 16.6074 2.96078 16.2586C3.02375 16.077 3.10104 15.9022 3.19267 15.7343C3.30105 15.5351 3.41367 15.2445 3.52386 15.0404C4.13458 13.9094 4.89363 12.893 5.80103 11.9913C6.09226 11.7019 6.42345 11.4203 6.6608 11.2193C7.19119 10.7709 7.66386 10.4155 8.0788 10.1531C8.45742 9.91414 8.94664 9.64026 9.54646 9.33147C9.82134 9.1904 10.1416 9.09897 10.4619 8.97001C10.5326 8.94135 10.6571 8.89917 10.8355 8.84347C11.3905 8.67071 11.9992 8.52237 12.6616 8.39845C12.8921 8.35526 13.2568 8.32478 13.7557 8.30702C13.9175 8.30097 14.1048 8.26625 14.3176 8.20288L15.3184 8.22771ZM17.4065 13.8757C17.3316 13.5403 17.1248 13.2488 16.8316 13.0654C16.5385 12.8819 16.183 12.8215 15.8434 12.8974C15.5038 12.9733 15.2079 13.1793 15.0208 13.4702C14.8337 13.761 14.7707 14.1128 14.8456 14.4481C14.9206 14.7835 15.1274 15.075 15.4205 15.2584C15.7137 15.4419 16.0691 15.5023 16.4087 15.4264C16.7483 15.3505 17.0442 15.1445 17.2314 14.8537C17.4185 14.5628 17.4815 14.2111 17.4065 13.8757ZM12.9938 15.2192C12.8622 15.1059 12.7092 15.0201 12.5435 14.9667C12.3779 14.9132 12.2029 14.8931 12.0286 14.9075C11.8542 14.9219 11.6838 14.9706 11.5273 15.0507C11.3707 15.1309 11.2309 15.2409 11.116 15.3745C10.8838 15.6444 10.7668 15.9941 10.7907 16.3467C10.8145 16.6993 10.9773 17.0258 11.2432 17.2545C11.3748 17.3677 11.5278 17.4535 11.6934 17.507C11.8591 17.5605 12.0341 17.5806 12.2084 17.5662C12.3828 17.5517 12.5531 17.5031 12.7097 17.4229C12.8663 17.3428 13.0061 17.2328 13.121 17.0991C13.3532 16.8292 13.4702 16.4795 13.4463 16.127C13.4225 15.7744 13.2597 15.4479 12.9938 15.2192ZM19.6209 18.1247C19.6209 17.9504 19.5865 17.7778 19.5198 17.6168C19.4531 17.4558 19.3554 17.3095 19.2321 17.1862C19.1089 17.063 18.9626 16.9652 18.8016 16.8985C18.6405 16.8318 18.468 16.7975 18.2937 16.7975C17.9417 16.7975 17.6041 16.9373 17.3552 17.1862C17.1063 17.4351 16.9665 17.7727 16.9665 18.1247C16.9665 18.4767 17.1063 18.8143 17.3552 19.0632C17.6041 19.3121 17.9417 19.4519 18.2937 19.4519C18.468 19.4519 18.6405 19.4176 18.8016 19.3509C18.9626 19.2842 19.1089 19.1864 19.2321 19.0632C19.3554 18.9399 19.4531 18.7936 19.5198 18.6326C19.5865 18.4716 19.6209 18.299 19.6209 18.1247ZM9.39509 18.2803C9.39509 17.9412 9.26037 17.6159 9.02056 17.3761C8.78074 17.1363 8.45549 17.0016 8.11634 17.0016C7.7772 17.0016 7.45194 17.1363 7.21213 17.3761C6.97232 17.6159 6.83759 17.9412 6.83759 18.2803C6.83759 18.6194 6.97232 18.9447 7.21213 19.1845C7.45194 19.4243 7.7772 19.5591 8.11634 19.5591C8.45549 19.5591 8.78074 19.4243 9.02056 19.1845C9.26037 18.9447 9.39509 18.6194 9.39509 18.2803ZM13.0911 20.3558C13.0851 20.666 13.206 20.9659 13.4272 21.1895C13.6483 21.4132 13.9516 21.5423 14.2703 21.5484C14.589 21.5545 14.897 21.4372 15.1265 21.2222C15.3561 21.0072 15.4884 20.7121 15.4944 20.4019C15.5003 20.0917 15.3794 19.7918 15.1583 19.5682C14.9372 19.3445 14.6339 19.2154 14.3152 19.2093C13.9965 19.2032 13.6885 19.3205 13.4589 19.5355C13.2294 19.7506 13.0971 20.0456 13.0911 20.3558ZM21.7236 22.1317C21.7236 21.7784 21.5833 21.4396 21.3335 21.1898C21.0837 20.94 20.7449 20.7997 20.3916 20.7997C20.0383 20.7997 19.6995 20.94 19.4497 21.1898C19.1999 21.4396 19.0596 21.7784 19.0596 22.1317C19.0596 22.485 19.1999 22.8238 19.4497 23.0736C19.6995 23.3234 20.0383 23.4637 20.3916 23.4637C20.7449 23.4637 21.0837 23.3234 21.3335 23.0736C21.5833 22.8238 21.7236 22.485 21.7236 22.1317ZM11.6269 22.3557C11.6269 22.1839 11.593 22.0137 11.5273 21.855C11.4615 21.6963 11.3651 21.552 11.2436 21.4305C11.1221 21.309 10.9779 21.2126 10.8191 21.1469C10.6604 21.0811 10.4903 21.0473 10.3184 21.0473C9.97142 21.0473 9.63862 21.1851 9.39324 21.4305C9.14787 21.6759 9.01001 22.0087 9.01001 22.3557C9.01001 22.7027 9.14787 23.0355 9.39324 23.2809C9.63862 23.5263 9.97142 23.6641 10.3184 23.6641C10.4903 23.6641 10.6604 23.6303 10.8191 23.5645C10.9779 23.4988 11.1221 23.4024 11.2436 23.2809C11.3651 23.1594 11.4615 23.0152 11.5273 22.8564C11.593 22.6977 11.6269 22.5275 11.6269 22.3557ZM15.08 24.1269C15.035 24.4738 15.1311 24.8245 15.3472 25.1019C15.5633 25.3794 15.8817 25.5608 16.2323 25.6064C16.406 25.6289 16.5823 25.6174 16.7512 25.5726C16.9202 25.5277 17.0784 25.4503 17.217 25.3448C17.3555 25.2393 17.4716 25.1078 17.5587 24.9578C17.6457 24.8077 17.702 24.6421 17.7243 24.4704C17.7694 24.1235 17.6733 23.7728 17.4572 23.4954C17.2411 23.2179 16.9227 23.0365 16.572 22.9909C16.3984 22.9684 16.2221 22.9799 16.0531 23.0248C15.8842 23.0696 15.7259 23.147 15.5874 23.2525C15.4488 23.358 15.3327 23.4895 15.2457 23.6396C15.1586 23.7896 15.1023 23.9552 15.08 24.1269ZM13.8283 26.3167C13.8283 25.9639 13.6882 25.6255 13.4387 25.3761C13.1893 25.1266 12.8509 24.9865 12.4981 24.9865C12.1453 24.9865 11.807 25.1266 11.5575 25.3761C11.3081 25.6255 11.1679 25.9639 11.1679 26.3167C11.1679 26.6695 11.3081 27.0078 11.5575 27.2573C11.807 27.5068 12.1453 27.6469 12.4981 27.6469C12.8509 27.6469 13.1893 27.5068 13.4387 27.2573C13.6882 27.0078 13.8283 26.6695 13.8283 26.3167ZM18.106 33.7749C18.0994 33.795 18.0984 33.8165 18.1033 33.8371C18.1081 33.8577 18.1184 33.8766 18.1332 33.8917C18.2567 34.0205 18.3994 34.1349 18.5613 34.235C18.9375 34.4683 19.2693 34.6855 19.5567 34.8865C20.2112 35.3442 20.7065 35.6427 21.4052 36.1295C21.737 36.3608 22.1723 36.3862 22.3842 35.9703C22.444 35.8524 22.4789 35.7683 22.489 35.7178C22.6185 35.0623 22.7087 34.4855 22.7596 33.9874C22.8438 33.1712 22.9727 32.4852 23.095 31.7302C23.1108 31.6337 23.1205 31.5249 23.1241 31.4038C23.1245 31.3843 23.118 31.3654 23.1059 31.3506L22.9903 31.2083C22.979 31.1943 22.9628 31.185 22.9449 31.1822C22.7499 31.1524 22.5501 31.1935 22.3455 31.3057C21.7953 31.6073 20.7012 32.1988 19.0632 33.0804C18.8121 33.2156 18.6115 33.3169 18.4614 33.3843C18.2818 33.4655 18.1633 33.5956 18.106 33.7749ZM11.1667 46.3444C11.0359 45.7771 10.4377 44.0315 9.53132 44.683C9.15593 44.953 8.86349 45.5857 8.72847 46.0071C8.67277 46.1799 8.61202 46.3815 8.54623 46.612C8.3658 47.2435 8.38154 47.9961 8.42755 48.6258C8.49234 49.5195 8.75935 50.5881 9.39328 51.2123C9.73052 51.5435 10.1955 51.46 10.474 51.0882C10.7082 50.7754 10.863 50.5201 10.9384 50.3223C11.1536 49.7564 11.2949 49.1172 11.3623 48.4048C11.4301 47.694 11.3326 47.0613 11.1667 46.3444Z" fill="#00F7C8"/>
<path d="M43.4697 34.6976L43.526 34.6456C43.666 34.5814 43.777 34.5091 43.859 34.4288C44.5783 33.7204 46.1135 32.1904 48.4648 29.8387C48.7409 29.5626 48.9819 29.1873 49.3233 29.0068C49.419 28.9564 49.5605 28.9374 49.7478 28.9499C50.1696 28.9786 50.4778 29.0119 50.6723 29.0498C50.9395 29.1019 51.1196 29.1354 51.2124 29.1503C51.5781 29.2091 51.7936 29.3071 52.1224 29.3992C52.2108 29.4238 52.3351 29.4678 52.4954 29.5312C52.8135 29.6571 53.1612 29.8079 53.5386 29.9834C53.8946 30.1489 54.2244 30.3346 54.5279 30.5405C55.2283 31.016 55.8529 31.5472 56.4019 32.1341C56.571 32.3145 56.8192 32.6415 57.1466 33.1149C57.6873 33.8972 58.0966 34.7503 58.3472 35.561C58.3674 35.626 58.4453 35.961 58.581 36.5661C58.6318 36.7921 58.6576 37.0067 58.6585 37.2097C58.6603 37.6759 58.7214 38.1222 58.7129 38.6029C58.6944 39.6483 58.6928 40.5777 58.7081 41.3911C58.7196 42.0214 58.6845 42.4785 58.6693 43.1754C58.6621 43.5011 58.6302 43.7522 58.5737 43.9286C58.4994 44.1615 58.3943 44.3942 58.2582 44.6267C57.9813 45.1014 57.588 45.4637 57.0782 45.7135C56.9914 45.7559 56.8297 45.808 56.5932 45.8697C56.4769 45.9004 56.263 45.9289 55.9514 45.9551C55.7702 45.9704 55.5538 45.9789 55.3023 45.9805C52.5878 45.9999 49.5074 46.0027 46.0611 45.989C45.9152 45.9884 45.742 45.9708 45.5967 45.9811C45.4437 45.992 45.2354 45.9916 44.9718 45.9799C44.7704 45.971 44.3127 45.9654 43.5986 45.963C43.5914 45.963 43.5843 45.9624 43.5774 45.9612C43.4434 45.9333 43.3264 45.9281 43.2263 45.9454C43.2132 45.9477 43.1998 45.9472 43.1869 45.9442C43.174 45.9411 43.1618 45.9355 43.1512 45.9276C43.1405 45.9197 43.1316 45.9098 43.125 45.8984C43.1183 45.887 43.114 45.8744 43.1124 45.8613C43.1003 45.766 43.088 45.6937 43.0755 45.6445C42.8688 44.817 42.5578 44.102 42.1425 43.4993C41.7154 42.8793 41.1792 42.382 40.5337 42.0074C40.2968 41.8702 39.9999 41.7459 39.6431 41.6345C39.3569 41.5453 39.1402 41.4954 38.9928 41.4849C38.8378 41.4736 38.4996 41.47 37.9781 41.474C36.2392 41.488 34.6601 41.4668 33.1749 41.4752C31.9333 41.4825 30.7609 41.4823 29.6577 41.4746C29.6385 41.4744 29.6196 41.469 29.6031 41.459C29.5866 41.449 29.573 41.4348 29.5639 41.4177C29.4165 41.1428 29.2985 40.9091 29.2097 40.7166C29.0341 40.337 28.8524 40.0046 28.6623 39.6788C28.6421 39.6445 28.6213 39.5971 28.6 39.5365C28.4982 39.2526 28.1852 38.793 28.092 38.4049C28.0443 38.2063 28.0349 37.973 28.0635 37.705C28.0825 37.525 28.1002 37.289 28.1168 36.9972C28.1188 36.9605 28.1241 36.9241 28.1325 36.8882C28.2339 36.4696 28.3713 36.0028 28.5449 35.4878C28.6216 35.2601 28.7031 35.0579 28.7895 34.8811C28.8872 34.6805 28.9469 34.5473 28.9687 34.4815C29.0018 34.3822 29.0678 34.2522 29.1667 34.0916C29.2414 33.9705 29.4018 33.7069 29.648 33.3008C29.7384 33.1515 29.8274 33.0233 29.915 32.9163C30.0706 32.7268 30.1542 32.5597 30.3025 32.4289C30.3881 32.3543 30.4943 32.2402 30.621 32.0868C30.7009 31.99 30.8097 31.8784 30.9474 31.752C31.4517 31.2888 31.9754 30.8444 32.5482 30.5102C32.8122 30.3564 33.0314 30.1923 33.2669 30.0743C33.7505 29.8333 34.0371 29.6954 34.1267 29.6607C34.6736 29.4516 35.2206 29.2779 35.7675 29.1394C36.1889 29.0329 36.7114 28.9814 37.1764 28.9336C37.5833 28.8918 37.7226 29.0516 38.0229 29.3544C38.944 30.2819 40.6734 32.0251 43.2111 34.5838C43.2688 34.6419 43.355 34.6799 43.4697 34.6976Z" fill="#00F7C8"/>
<path d="M35.0137 56.1669C34.9919 56.1556 34.9633 56.1512 34.9277 56.1536C34.8551 56.1298 34.7996 56.1722 34.7612 56.2807C34.6268 56.6579 34.4573 57.0243 34.3156 57.3997C34.27 57.5199 34.1899 57.6053 34.0752 57.6558C34.0526 57.6656 34.0272 57.667 34.0037 57.6595C33.9802 57.652 33.9602 57.6363 33.9475 57.6152L32.0148 54.4062C32.0081 54.3953 31.998 54.3869 31.986 54.3824C31.974 54.3779 31.9609 54.3775 31.9488 54.3814C31.8342 54.4165 31.764 54.4587 31.7381 54.5079C31.5399 54.8837 31.3091 55.2621 31.0455 55.6432C30.9825 55.7352 30.9214 55.9047 30.8475 56.0119C30.6194 56.3449 30.3207 56.8299 29.9514 57.4669C29.8856 57.5803 29.7845 57.6354 29.6481 57.6321C29.6341 57.6318 29.6204 57.6275 29.6087 57.6198C29.5969 57.6121 29.5875 57.6013 29.5815 57.5886L28.9082 56.1403C28.905 56.1332 28.9001 56.1271 28.894 56.1224C28.8878 56.1177 28.8806 56.1147 28.8731 56.1136C28.6886 56.0894 28.558 56.087 28.4813 56.1064C28.0228 56.223 27.603 56.3175 27.2219 56.3897C27.1989 56.3942 27.1362 56.3948 27.0336 56.3915C27.0146 56.3908 26.9957 56.3977 26.981 56.4109L26.8708 56.5102C26.8649 56.5154 26.858 56.5193 26.8505 56.5216C26.843 56.5238 26.8351 56.5244 26.8274 56.5232C26.8196 56.5221 26.8122 56.5192 26.8057 56.5149C26.7992 56.5105 26.7937 56.5048 26.7896 56.4981L26.7339 56.4049C26.73 56.3984 26.7275 56.3911 26.7266 56.3836C26.7258 56.3761 26.7266 56.3684 26.7291 56.3613C26.7517 56.2983 26.7812 56.2333 26.8175 56.1663C27.0936 55.6511 27.4684 55.065 27.7554 54.5648C27.9701 54.1911 28.1247 53.9321 28.2191 53.788C28.3532 53.5834 28.4745 53.3816 28.583 53.1826C28.7072 52.9549 28.9493 52.6437 29.0577 52.3149C29.0631 52.2986 29.0635 52.2811 29.0589 52.2646C29.0542 52.2481 29.0448 52.2334 29.0317 52.2223C28.9897 52.1864 28.9542 52.1458 28.9251 52.1006C28.5243 51.481 28.2753 50.9001 28.178 50.358C28.0545 49.6745 28.1525 48.9128 28.4892 48.2383C28.532 48.1531 28.5804 48.0561 28.6345 47.9471C28.8299 47.5563 29.1142 47.2157 29.4876 46.925C30.1431 46.4148 30.8824 46.1335 31.7054 46.081C31.9105 46.0677 32.2195 46.0937 32.6324 46.1591C33.735 46.3329 34.5893 47.0928 35.1197 48.0379C35.4285 48.5877 35.5962 49.3578 35.5683 49.9427C35.5522 50.2761 35.4678 50.6582 35.3152 51.0888C35.1768 51.4792 34.96 51.8293 34.665 52.1393C34.6344 52.1716 34.6166 52.214 34.6151 52.2584C34.6135 52.3028 34.6282 52.3461 34.6565 52.3803C34.7469 52.4909 34.8297 52.6096 34.9047 52.7363C35.6212 53.9448 36.2196 54.9608 36.6999 55.7843C36.8344 56.0147 36.9262 56.2394 36.9754 56.4581C36.9764 56.4623 36.9763 56.4667 36.9753 56.4708C36.9743 56.475 36.9723 56.4789 36.9696 56.4821C36.9668 56.4854 36.9634 56.488 36.9594 56.4897C36.9555 56.4915 36.9513 56.4922 36.947 56.4921C36.7599 56.483 36.5601 56.3897 36.3663 56.348C35.8093 56.2277 35.4589 56.155 35.3152 56.13C35.2301 56.115 35.1296 56.1274 35.0137 56.1669Z" fill="#00F7C8"/>
</svg>
