<svg width="62" height="63" viewBox="0 0 62 63" fill="none" xmlns="http://www.w3.org/2000/svg">
<path d="M15.9058 16.9047C15.9005 16.9087 15.8945 16.9117 15.8876 16.9138C15.8825 16.9152 15.8781 16.9182 15.8749 16.9224C15.8717 16.9265 15.87 16.9316 15.8701 16.9368C15.8979 19.2545 15.9147 20.9754 15.9203 22.0996C15.9207 22.1666 15.9369 22.2104 15.9688 22.231C15.9566 22.258 15.9508 22.2847 15.9512 22.3109C15.9513 22.3208 15.9546 22.3303 15.9604 22.3382C15.9663 22.3462 15.9745 22.3521 15.9839 22.3551C16.1474 22.41 16.2848 22.4954 16.3962 22.6112C16.5409 22.7608 16.6638 22.8758 16.7522 23.0326C17.0198 23.5081 17.1193 23.9945 17.0507 24.4918C16.9902 24.9296 16.7649 25.3286 16.4628 25.6658C16.1964 25.9619 15.8477 26.135 15.5104 26.2731C15.1439 26.4228 14.7463 26.4697 14.3176 26.4136C14.0143 26.3742 13.6758 26.2434 13.4276 26.1441C12.8191 25.9001 12.3692 25.1463 12.2397 24.5499C12.2251 24.4837 12.2207 24.3073 12.2263 24.0207C12.2391 23.3238 12.6465 22.6354 13.2932 22.3333C13.3558 22.3042 13.388 22.231 13.3901 22.1135C13.4137 20.7579 13.3743 19.602 13.378 18.2264C13.378 18.224 13.3773 17.4217 13.3761 15.8197C13.3761 15.6982 13.3184 15.6108 13.203 15.5575C12.4562 15.2128 11.7559 14.8856 11.102 14.576C10.6019 14.3391 9.92355 14.0101 9.06701 13.5891C8.8555 13.485 8.71342 13.3437 8.64076 13.1653C8.55761 12.9598 8.55196 12.7588 8.62381 12.5622C8.68678 12.3895 8.83007 12.2494 9.05369 12.1421C9.65432 11.8532 10.2277 11.5705 10.8471 11.2889C11.1514 11.1509 11.3981 11.0318 11.587 10.9317C11.8651 10.7844 12.0641 10.6863 12.184 10.6375C12.4334 10.537 12.8312 10.3154 13.1806 10.1725C13.3283 10.1125 13.5124 9.98053 13.6976 9.93149C13.7077 9.92866 13.7174 9.92502 13.7267 9.92059C13.9059 9.83179 14.4395 9.57063 15.3276 9.13711C15.58 9.01359 15.9058 8.88402 16.1776 8.75143C17.3385 8.18511 17.944 7.88964 17.994 7.86502C18.5152 7.60992 18.8106 7.47227 18.8805 7.45209C18.99 7.42061 19.1081 7.33463 19.2129 7.28559C20.3802 6.73945 21.3173 6.29342 22.024 5.9475C22.2014 5.86031 22.4061 5.78463 22.572 5.70229C22.9086 5.53477 23.3202 5.34425 23.8065 5.13072C24.1553 4.97754 24.3963 4.84857 24.8007 4.63666C24.8794 4.59549 25.0689 4.55553 25.144 4.48953C25.1606 4.4746 25.3067 4.40598 25.5824 4.28367C25.8932 4.14522 26.2964 3.95329 26.7921 3.70787C27.0702 3.56982 27.4533 3.39283 27.9413 3.17688C28.2884 3.02309 28.6695 2.84023 29.0844 2.62832C29.212 2.56333 29.3367 2.50682 29.4586 2.45879C29.6227 2.394 29.7716 2.29168 29.9557 2.23174C30.2362 2.14051 30.4084 2.0945 30.4722 2.09369C30.7991 2.08885 30.9924 2.08643 31.0522 2.08643C31.3192 2.08703 31.5069 2.18148 31.7594 2.25475C32.0203 2.33043 32.2492 2.48725 32.5259 2.62166C33.3114 3.00391 34.2091 3.42936 35.219 3.89799C35.4798 4.01908 35.6895 4.12322 35.8481 4.21041C36.1272 4.3648 36.3936 4.45502 36.7012 4.60457C37.0584 4.77814 37.2578 4.8734 37.2994 4.89035C37.4762 4.9618 37.6869 5.06634 37.9315 5.20398C38.1973 5.35354 38.491 5.45949 38.7834 5.61207C39.1255 5.79008 39.5185 5.95113 39.8024 6.08797C40.3558 6.35518 41.0043 6.66155 41.7478 7.00707C41.9827 7.11605 42.2237 7.20809 42.4332 7.31404C43.1295 7.66824 43.537 7.87592 44.0861 8.11387C44.4258 8.261 44.786 8.45051 45.1039 8.59522C45.5524 8.79906 46.1586 9.08282 46.9227 9.4465C47.0002 9.48404 47.0941 9.50947 47.1673 9.54701C47.3102 9.62088 47.6255 9.77124 48.1131 9.99809C49.4932 10.6415 50.7727 11.2439 51.9518 11.8054C52.1956 11.9213 52.4252 12.0337 52.6408 12.1427C53.2795 12.4648 53.1839 13.3003 52.6069 13.6121C52.38 13.7348 52.1516 13.842 51.9215 13.9336C51.7713 13.9934 51.5077 14.1199 51.1307 14.3133C50.9594 14.4004 50.7608 14.4646 50.6203 14.5349C49.945 14.8711 49.2564 15.1987 48.5545 15.5175C48.0852 15.7307 47.5113 16.0273 47.0172 16.2726C46.7926 16.384 46.4553 16.5087 46.2028 16.6383C45.3984 17.05 44.4783 17.498 43.4425 17.9824C43.4284 17.9888 43.4136 17.9939 43.3983 17.9975C43.1258 18.0575 43.0617 18.1677 43.0604 18.4553C43.0588 19.0999 43.0607 19.644 43.0659 20.0876C43.0786 21.1647 43.0441 22.5924 43.0611 23.5975C43.0643 23.8094 43.0574 23.9818 43.0405 24.1146C43.0397 24.1182 43.0389 24.1217 43.038 24.1249L42.9339 24.4252C42.9275 24.4432 42.9179 24.4598 42.9054 24.4742C42.5852 24.846 42.2667 24.9598 41.7847 24.9247C41.6136 24.9122 41.4531 24.8577 41.3034 24.7612C41.0006 24.5663 40.7706 24.3834 40.4606 24.163C40.1538 23.9459 39.886 23.7584 39.6571 23.6005C39.2414 23.314 38.6222 22.9571 37.7995 22.5301C37.4423 22.3448 37.1698 22.257 36.8247 22.0899C36.5208 21.9434 36.0515 21.7872 35.793 21.697C35.6683 21.6534 35.5686 21.6235 35.4939 21.6073C35.3492 21.5759 35.2535 21.5171 35.0967 21.476C34.6559 21.3609 34.354 21.2804 34.1909 21.2344C34.1628 21.2267 34.1339 21.2229 34.105 21.2229C33.9306 21.2223 33.706 21.1423 33.5685 21.1302C33.5261 21.1266 33.2912 21.0864 32.8638 21.0097C32.6482 20.9704 32.4763 20.9764 32.2873 20.9401C32.0815 20.9002 31.8278 20.9104 31.6619 20.9135C31.6302 20.9143 31.5986 20.9108 31.568 20.9032C31.4094 20.8648 31.21 20.8481 30.9698 20.8529C30.192 20.8679 29.4491 20.9187 28.7411 21.0055C28.5619 21.0279 28.1811 21.0915 27.9389 21.1629C27.7197 21.2277 27.489 21.2338 27.2274 21.3016C26.9429 21.3759 26.7562 21.4239 26.6674 21.4457C26.443 21.5002 26.2781 21.5516 26.1727 21.6001C26.0549 21.6538 25.9461 21.6913 25.8464 21.7127C25.7955 21.7236 25.6859 21.7607 25.5176 21.8241C24.9295 22.0445 24.3238 22.3168 23.7006 22.6409C23.3898 22.8023 23.1165 22.9577 22.8808 23.1071C22.8449 23.1301 22.5811 23.3008 22.0894 23.6193C21.5712 23.9552 21.0727 24.3166 20.5939 24.7037C20.2924 24.9471 20.0193 25.0779 19.6506 25.0749C19.6394 25.0749 19.6284 25.0732 19.6179 25.07L19.2195 24.9586C19.2107 24.9562 19.2023 24.9527 19.1947 24.9483C18.9125 24.7865 18.7355 24.5505 18.6637 24.2405C18.6589 24.2208 18.6564 24.2003 18.6564 24.1794C18.6435 21.791 18.6421 19.8468 18.6522 18.3469C18.6534 18.1241 18.5813 18.0327 18.3755 17.9455C17.8661 17.7291 17.3771 17.4986 16.9084 17.254C16.6093 17.0984 16.3157 16.9973 16.0069 16.8399C15.9931 16.8328 15.9775 16.8303 15.9621 16.8326C15.9205 16.8395 15.9017 16.8635 15.9058 16.9047Z" fill="#00F7C8"/>
<path d="M39.286 25.962C39.2903 26.0365 39.2031 26.1079 39.1462 26.163C38.6188 26.6765 38.3082 27.0052 37.8517 27.3637C37.2333 27.8489 36.5919 28.2777 35.9275 28.6503C35.5024 28.8888 35.0108 29.108 34.6094 29.2951C34.3212 29.4291 33.7668 29.6251 32.9462 29.883C32.8275 29.9202 32.7373 29.9426 32.6755 29.9502C32.5508 29.966 32.4485 30.0241 32.3159 30.0532C32.0652 30.1093 31.7142 30.1957 31.263 30.3123C31.1645 30.3377 30.961 30.3773 30.6526 30.431C30.5122 30.4552 30.2886 30.5131 29.9818 30.6047C29.6516 30.7036 29.3507 30.7894 29.079 30.8621C28.8138 30.9327 28.6154 30.9951 28.4839 31.0492C28.2168 31.1575 27.9747 31.2108 27.7004 31.3343C26.9641 31.6661 26.4174 31.9364 26.0602 32.1451C25.9249 32.2238 25.5897 32.4563 25.0545 32.8426C24.802 33.0248 24.6294 33.1986 24.3437 33.442C24.1285 33.6256 23.832 33.929 23.4542 34.352C23.0159 34.8428 22.6619 35.3316 22.3922 35.8184C22.3059 35.9746 22.1942 36.1866 22.0574 36.4542C21.9234 36.7157 21.8229 36.9329 21.7559 37.1057C21.5403 37.6623 21.4166 38.0076 21.3847 38.1416C21.2959 38.513 21.2364 38.8109 21.2061 39.0353C21.1752 39.2648 21.1359 39.4252 21.1153 39.6075C21.0515 40.177 21.0362 40.7847 21.0693 41.4305C21.0778 41.5944 21.0899 41.7147 21.1056 41.7914C21.1371 41.944 21.1207 42.0875 21.1625 42.2679C21.2279 42.5488 21.24 42.8237 21.3109 43.1101C21.4614 43.72 21.6419 44.2728 21.8522 44.7685C22.1089 45.3731 22.4544 45.9806 22.8887 46.5909C23.3557 47.2465 23.919 47.8652 24.5786 48.4473C24.8474 48.6846 25.1023 48.8877 25.3433 49.0564C25.7732 49.3579 26.0434 49.5406 26.154 49.6044C26.5371 49.8243 26.8604 49.9902 27.124 50.102C27.1405 50.1089 27.3506 50.1963 27.7543 50.3642C28.5111 50.6791 29.3321 50.8704 30.1507 50.9449C30.273 50.9558 30.3879 50.9673 30.4952 50.9794C30.8821 51.023 31.3241 51.0054 31.6323 51.009C31.7445 51.0102 31.8777 51.0004 32.0319 50.9794C32.3734 50.9327 32.6634 50.8916 32.9571 50.8256C33.0777 50.7981 33.2533 50.7636 33.4838 50.722C33.6449 50.693 34.0067 50.5931 34.5694 50.4223C34.7115 50.3796 34.8328 50.3323 34.9333 50.2807C35.0738 50.2092 35.2548 50.1771 35.4219 50.0978C36.184 49.7382 36.7951 49.4019 37.2553 49.0891C37.4264 48.9728 37.7096 48.7623 38.1048 48.4576C38.2265 48.3631 38.3397 48.219 38.4717 48.1633C38.5558 48.1288 38.6418 48.0041 38.7217 47.9429C38.8614 47.8364 39.0634 47.6539 39.3278 47.3956C39.4083 47.3169 39.5627 47.2128 39.6663 47.1074C40.327 46.4365 41.0713 45.7191 41.8992 44.955C41.9836 44.8771 42.0694 44.803 42.1566 44.7328C42.3588 44.5699 42.6082 44.3229 42.7881 44.2048C42.9727 44.0837 43.1241 43.9444 43.3178 43.8385C43.4736 43.7529 43.6377 43.6593 43.8101 43.5575C43.9453 43.478 44.1156 43.3961 44.3211 43.3117C44.7034 43.1555 45.0668 43.0397 45.4116 42.9642C45.5199 42.94 45.7857 42.9242 45.7609 43.1083C45.7004 43.5547 45.5781 44.0296 45.394 44.5329C45.1679 45.1521 44.9019 45.7592 44.596 46.3542C44.4963 46.5479 44.3936 46.7298 44.2878 46.8997C44.1534 47.1171 44.0244 47.3793 43.8603 47.6166C43.5879 48.0114 43.1925 48.5708 42.782 49.0322C42.7735 49.0419 42.5981 49.2401 42.2558 49.6268C41.4901 50.4922 40.6304 51.2579 39.6765 51.9239C39.1704 52.2779 38.839 52.5009 38.6824 52.5929C37.7314 53.1532 36.825 53.5934 35.9632 53.9135C35.5362 54.0721 34.8076 54.285 33.7775 54.5522C33.6217 54.5926 33.4765 54.6168 33.3421 54.6249C33.1468 54.637 32.9998 54.6505 32.9014 54.6655C32.4795 54.7309 32.0666 54.7672 31.6626 54.7744C31.6175 54.7752 31.5726 54.7811 31.5288 54.792C31.2575 54.8604 30.8446 54.8065 30.7108 54.8084C30.2797 54.8138 29.8734 54.7599 29.4532 54.7678C29.3868 54.769 29.3202 54.7631 29.2546 54.7502C28.9224 54.6865 28.6088 54.6445 28.3137 54.6243C28.2689 54.6211 28.2021 54.6023 28.1133 54.568C28.0952 54.5611 28.0763 54.5559 28.057 54.5522C27.3853 54.4243 26.7381 54.2548 26.1153 54.0436C25.4674 53.8239 25.1296 53.7294 24.6646 53.5042C24.3247 53.3395 23.9459 53.1439 23.5281 52.9175C23.3991 52.8472 23.2338 52.7873 23.1212 52.714C22.8928 52.5647 22.5648 52.3485 22.1373 52.0656C21.8189 51.8549 21.5046 51.6202 21.1946 51.3614C20.6933 50.9432 20.3492 50.6502 20.1623 50.4823C19.9451 50.2869 19.7934 50.1404 19.707 50.0427C19.5108 49.8211 19.3201 49.6096 19.1348 49.4082C18.8321 49.0794 18.5857 48.7349 18.3235 48.397C18.068 48.0695 17.8863 47.7916 17.6841 47.4901C17.5271 47.2559 17.3949 47.0414 17.2875 46.8464C17.1547 46.6055 17.0395 46.3806 16.9418 46.172C16.8413 45.9568 16.7495 45.7641 16.6663 45.5937C16.586 45.4298 16.5034 45.2339 16.4187 45.0058C16.2677 44.6006 16.1394 44.25 16.0336 43.9541C15.965 43.7624 15.9026 43.5402 15.8465 43.2875C15.7815 42.9928 15.7242 42.7672 15.6746 42.6106C15.6657 42.5825 15.6608 42.5531 15.66 42.5234C15.6534 42.2921 15.5535 41.9997 15.5256 41.7871C15.4328 41.0658 15.3864 40.558 15.3864 40.2638C15.3864 39.7257 15.3855 39.2363 15.3839 38.7955C15.3827 38.5334 15.433 38.2185 15.4536 37.9872C15.4972 37.4992 15.5615 37.0084 15.6467 36.5147C15.6919 36.2548 15.7621 35.9512 15.8574 35.6041C15.8691 35.5613 15.9414 35.2578 16.0742 34.6935C16.1293 34.4598 16.2498 34.2067 16.3157 34.0038C16.5579 33.2652 16.8457 32.5562 17.1791 31.8768C17.49 31.2439 17.8779 30.5836 18.3429 29.8957C18.5019 29.6608 18.6617 29.4461 18.8224 29.2515C18.9017 29.1553 18.9774 29.0227 19.0694 28.9131C19.5966 28.2862 20.1048 27.7431 20.594 27.2837C20.6327 27.2474 20.8315 27.0761 21.1904 26.7697C21.55 26.4627 21.9042 26.249 22.256 25.9584C22.3706 25.8639 22.5212 25.7584 22.7077 25.6417C22.9588 25.4851 23.2811 25.2938 23.6746 25.0677C23.9289 24.9216 24.1977 24.789 24.4811 24.6699C24.5871 24.6257 24.6966 24.547 24.7832 24.5107C25.4747 24.2209 26.0333 24.0084 26.4592 23.8731C27.04 23.6887 27.7304 23.5222 28.5305 23.3736C28.6342 23.3543 28.788 23.3369 28.9918 23.3216C29.058 23.3167 29.2118 23.3036 29.4532 23.2822C30.5237 23.1865 31.5564 23.1954 32.5514 23.3088C33.1762 23.3799 33.7155 23.4776 34.1692 23.6019C34.4619 23.6822 34.6411 23.7309 34.7069 23.7478C34.9478 23.8104 35.1265 23.8604 35.2427 23.898C35.5216 23.9888 35.9126 24.1323 36.4155 24.3285C36.6117 24.4051 36.7735 24.4798 36.9011 24.5525C37.1287 24.6821 37.3189 24.7402 37.5429 24.8631C38.152 25.1961 38.7181 25.5376 39.2412 25.8875C39.2695 25.9061 39.2844 25.9309 39.286 25.962Z" fill="#00F7C8"/>
<path d="M40.8735 27.5366C41.08 27.3271 41.2847 27.5336 41.456 27.7249C41.6562 27.9481 41.8602 28.1681 42.0681 28.3849C42.1904 28.5126 42.271 28.6289 42.4338 28.8287C43.3509 29.9561 44.1041 31.1706 44.6934 32.4724C45.0454 33.2502 45.349 34.0702 45.6041 34.9324C45.7421 35.3986 45.8142 35.8582 45.9153 36.2868C45.948 36.4243 45.9425 36.5702 46 36.721C46.0097 36.7459 46.016 36.7721 46.0188 36.7991C46.0503 37.1097 46.0733 37.3155 46.1211 37.6419C46.1744 38.0019 46.2051 38.3099 46.2132 38.5658C46.2144 38.6038 46.2186 38.6464 46.2259 38.6936C46.2356 38.7529 46.2406 38.7955 46.241 38.8213C46.2501 39.2373 46.2489 39.4462 46.284 39.7447C46.3006 39.888 46.2846 40.0436 46.2362 40.2115C46.1883 40.3786 46.0485 40.4591 45.8638 40.4779C45.6555 40.4989 45.4345 40.5395 45.2008 40.5996C44.6313 40.7465 44.0987 40.9362 43.603 41.1687C43.5174 41.2091 43.2819 41.332 42.8964 41.5375C42.168 41.9256 41.4984 42.4124 40.8838 42.9512C40.6412 43.1636 40.4491 43.3256 40.3074 43.4374C40.0882 43.6106 39.8037 43.8714 39.4537 44.2197C39.1401 44.5317 38.8628 44.8009 38.6218 45.0274C37.9998 45.6115 37.5812 45.9994 37.3661 46.1911C37.3221 46.2307 37.1614 46.356 36.8841 46.5671C36.5699 46.8069 36.2859 47.0569 35.9547 47.2634C35.5063 47.5427 34.9993 47.8176 34.4338 48.088C34.1815 48.2091 33.9242 48.3062 33.6618 48.3793C33.328 48.4721 33.0594 48.5341 32.8559 48.5651C32.6698 48.5938 32.5649 48.612 32.5411 48.6196C32.5082 48.6305 32.4776 48.6378 32.4503 48.6414L31.9895 48.7044C31.981 48.7056 31.9723 48.706 31.9635 48.7056C31.6668 48.6941 31.3937 48.7547 31.1067 48.7359C30.7487 48.7125 30.543 48.7018 30.4897 48.7038C30.4571 48.705 30.4243 48.7032 30.3917 48.6983C30.0308 48.6457 29.6548 48.6015 29.3067 48.5052C28.7613 48.3542 28.3417 48.215 28.0479 48.0874C27.4 47.8057 26.7217 47.3673 26.0129 46.7724C25.868 46.6509 25.7465 46.5322 25.6484 46.4163C25.5073 46.2492 25.3184 46.0652 25.1634 45.8393C25.0876 45.7295 24.9574 45.5499 24.7729 45.3005C24.4653 44.8845 24.1148 44.2693 23.9083 43.7081C23.746 43.2661 23.6334 42.9008 23.5705 42.6122C23.4942 42.2634 23.4306 41.9098 23.3797 41.5514C23.3519 41.352 23.3464 40.9235 23.3634 40.266C23.3642 40.2411 23.3687 40.2164 23.3767 40.1927C23.3993 40.1245 23.4177 40.0321 23.4318 39.9154C23.5735 38.7566 23.9513 37.7002 24.5652 36.7464C24.7428 36.4707 24.9437 36.2073 25.1677 35.9563C25.4107 35.6838 25.6391 35.444 25.8531 35.237C25.9108 35.1804 26.1374 34.9962 26.533 34.6842C26.7328 34.5259 26.9768 34.3657 27.265 34.2034C27.7994 33.9023 28.1385 33.7199 28.2822 33.6561C28.926 33.3707 29.4183 33.1757 29.7589 33.0712C30.2294 32.9259 30.9517 32.7212 31.539 32.585C32.6022 32.3384 33.3048 32.1614 33.6467 32.054C35.2112 31.5628 36.565 30.9438 37.7081 30.197C38.4311 29.7248 39.046 29.2608 39.553 28.8051C39.7702 28.6101 39.8935 28.5011 39.923 28.4781C40.038 28.3881 40.1575 28.2759 40.2814 28.1415C40.3213 28.0983 40.5187 27.8967 40.8735 27.5366Z" fill="#00F7C8"/>
</svg>
