<svg width="37" height="37" viewBox="0 0 37 37" fill="none" xmlns="http://www.w3.org/2000/svg">
<rect width="36.6" height="36.6" rx="18.3" fill="white"/>
<path d="M18.2998 0C28.4066 0 36.5995 8.19308 36.5996 18.2998C36.5996 28.4066 28.4066 36.5996 18.2998 36.5996C8.19308 36.5995 0 28.4066 0 18.2998C0.000105399 8.19315 8.19315 0.000105406 18.2998 0ZM18.2988 8.54004C15.6501 8.54005 15.3172 8.55127 14.2764 8.59863C13.2374 8.64622 12.5278 8.81138 11.9072 9.05273C11.2655 9.30199 10.7211 9.63521 10.1787 10.1777C9.63585 10.7202 9.30185 11.2646 9.05176 11.9062C8.8098 12.527 8.64541 13.2368 8.59863 14.2754C8.55207 15.3164 8.54004 15.6494 8.54004 18.2998C8.54004 20.9503 8.55147 21.2824 8.59863 22.3232C8.64642 23.3623 8.81158 24.0718 9.05273 24.6924C9.30216 25.3341 9.63529 25.8786 10.1777 26.4209C10.72 26.9638 11.2648 27.2986 11.9062 27.5479C12.5272 27.7892 13.2367 27.9534 14.2754 28.001C15.3165 28.0484 15.6493 28.0605 18.2998 28.0605C20.9506 28.0605 21.2822 28.0484 22.3232 28.001C23.3623 27.9534 24.0724 27.7892 24.6934 27.5479C25.3351 27.2986 25.8786 26.9638 26.4209 26.4209C26.9637 25.8784 27.2978 25.3341 27.5479 24.6924C27.7877 24.0717 27.9522 23.3617 28.001 22.3232C28.0477 21.2825 28.0596 20.9501 28.0596 18.2998C28.0596 15.6494 28.0477 15.3164 28.001 14.2754C27.9522 13.2368 27.7877 12.5276 27.5479 11.9072C27.2977 11.2653 26.9638 10.7202 26.4209 10.1777C25.8781 9.63493 25.3349 9.30179 24.6924 9.05273C24.0703 8.81145 23.361 8.64623 22.3223 8.59863C21.2813 8.55126 20.9494 8.54004 18.2988 8.54004Z" fill="#00F7C8"/>
<path d="M17.4255 10.2983C17.6853 10.2979 17.975 10.2983 18.3005 10.2983C20.9065 10.2983 21.2158 10.3082 22.2449 10.355C23.196 10.3985 23.7124 10.5574 24.0564 10.6909C24.5119 10.8678 24.8371 11.0798 25.1785 11.4214C25.52 11.7629 25.7317 12.0881 25.9089 12.5435C26.0425 12.8871 26.2016 13.4035 26.2449 14.355C26.2916 15.3838 26.3015 15.6931 26.3015 18.2974C26.3015 20.9021 26.2916 21.2118 26.2449 22.2407C26.2013 23.1922 26.0425 23.7086 25.9089 24.0522C25.732 24.5077 25.52 24.832 25.1785 25.1733C24.8369 25.5149 24.5121 25.7269 24.0564 25.9038C23.7128 26.038 23.1959 26.1962 22.2449 26.2397C21.216 26.2865 20.9065 26.2964 18.3005 26.2964C15.6949 26.2964 15.3858 26.2865 14.3572 26.2397C13.4056 26.1958 12.8889 26.0364 12.5447 25.9028C12.0894 25.726 11.7641 25.5148 11.4226 25.1733C11.081 24.8317 10.8694 24.5069 10.6921 24.0513C10.5585 23.7076 10.3985 23.1913 10.3552 22.2397C10.3085 21.2109 10.2996 20.9018 10.2996 18.2954C10.2996 15.6893 10.3085 15.3816 10.3552 14.353C10.3987 13.4014 10.5585 12.8846 10.6921 12.5405C10.869 12.0851 11.081 11.76 11.4226 11.4185C11.7642 11.0769 12.0892 10.8653 12.5447 10.688C12.8887 10.5538 13.4056 10.3948 14.3572 10.3511C15.2573 10.3104 15.6067 10.2984 17.4255 10.2964V10.2983ZM18.3005 13.2876C15.5327 13.2877 13.2888 15.5324 13.2888 18.3003C13.2889 21.0681 15.5327 23.3109 18.3005 23.311C21.0685 23.311 23.3121 21.0682 23.3123 18.3003C23.3123 15.5323 21.0685 13.2876 18.3005 13.2876ZM23.5105 11.9194C22.864 11.9195 22.3396 12.4436 22.3396 13.0903C22.3397 13.7368 22.864 14.2611 23.5105 14.2612C24.1571 14.2612 24.6813 13.7369 24.6814 13.0903C24.6814 12.4437 24.1571 11.9194 23.5105 11.9194Z" fill="#00F7C8"/>
<path d="M18.301 15.0469C20.0976 15.0469 21.5543 16.5034 21.5543 18.3002C21.5543 20.0969 20.0976 21.5536 18.301 21.5536C16.5041 21.5536 15.0476 20.0969 15.0476 18.3002C15.0476 16.5034 16.5041 15.0469 18.301 15.0469V15.0469Z" fill="#00F7C8"/>
</svg>
