<svg width="24" height="25" viewBox="0 0 24 25" fill="none" xmlns="http://www.w3.org/2000/svg">
<path d="M4 6.49365L10.1076 11.1059L10.1097 11.1076C10.7878 11.6049 11.1271 11.8537 11.4988 11.9499C11.8272 12.0348 12.1725 12.0348 12.501 11.9499C12.8729 11.8537 13.2132 11.6041 13.8926 11.1059C13.8926 11.1059 17.8101 8.09959 20 6.49365M3 16.2938V8.69385C3 7.57374 3 7.01327 3.21799 6.58545C3.40973 6.20913 3.71547 5.90339 4.0918 5.71164C4.51962 5.49365 5.08009 5.49365 6.2002 5.49365H17.8002C18.9203 5.49365 19.4796 5.49365 19.9074 5.71164C20.2837 5.90339 20.5905 6.20913 20.7822 6.58545C21 7.01285 21 7.57265 21 8.69056V16.2972C21 17.4151 21 17.9741 20.7822 18.4015C20.5905 18.7779 20.2837 19.0841 19.9074 19.2759C19.48 19.4937 18.921 19.4937 17.8031 19.4937H6.19691C5.07899 19.4937 4.5192 19.4937 4.0918 19.2759C3.71547 19.0841 3.40973 18.7779 3.21799 18.4015C3 17.9737 3 17.414 3 16.2938Z" stroke="#00F7C8" stroke-width="2" stroke-linecap="round" stroke-linejoin="round"/>
</svg>
