<svg width="62" height="63" viewBox="0 0 62 63" fill="none" xmlns="http://www.w3.org/2000/svg">
<path d="M39.3095 14.3248C39.456 14.3091 39.5796 14.3603 39.6801 14.4786C39.7499 14.5605 39.8211 14.6709 39.8938 14.8098C40.4666 15.8992 40.8248 17.0405 40.9685 18.2337C40.981 18.3391 40.9891 18.4341 40.9927 18.5189C40.9982 18.6527 41.0321 18.7762 41.0381 18.8985C41.0668 19.4749 41.0299 20.0978 40.9273 20.767C40.7473 21.944 40.3354 23.0304 39.6916 24.0262C39.0807 24.9714 38.2954 25.8233 37.3744 26.4663C36.348 27.1831 35.2145 27.672 33.9741 27.9327C33.8781 27.9529 33.7719 27.9487 33.6557 27.92C33.4268 27.8631 33.4801 27.696 33.5606 27.5264C33.7451 27.1345 33.8105 26.7341 33.7568 26.3252C33.6653 25.6259 33.1834 25.0083 32.673 24.5433C32.4966 24.3827 32.2148 24.1249 31.8277 23.7701C31.6812 23.6357 31.4756 23.4129 31.2108 23.1017C30.2134 21.9263 29.8473 20.5785 30.1125 19.0584C30.1819 18.6596 30.2261 18.4222 30.2451 18.3463C30.264 18.2704 30.2461 18.1772 30.1912 18.0666C30.087 17.8571 29.8691 17.951 29.7274 18.0569C29.5308 18.2047 29.3607 18.3473 29.217 18.485C28.0835 19.5676 27.2213 20.8342 26.7236 22.2885C26.6143 22.6086 26.5341 22.9019 26.4833 23.1683C26.3313 23.9578 26.2635 24.6844 26.3961 25.4176C26.4034 25.4572 26.4318 25.5978 26.4815 25.8396C26.603 26.4338 26.8278 26.9757 27.156 27.4653C27.2389 27.5894 27.3521 27.8667 27.1457 27.9472C27.0306 27.9925 26.9301 28.0076 26.8441 27.9927C26.6092 27.9515 26.4724 27.9259 26.4336 27.9158C24.0184 27.2631 21.9532 25.5411 21.0655 23.1828C20.8482 22.6046 20.7422 22.0336 20.6508 21.3131C20.6455 21.2732 20.6437 21.0106 20.6453 20.5254C20.6462 20.2106 20.6615 19.949 20.6914 19.7407C20.7757 19.1567 20.8859 18.6747 21.0219 18.2949C21.3376 17.4145 21.7737 16.6101 22.3304 15.8815C22.6186 15.5041 22.9461 15.1202 23.313 14.7299C23.7167 14.3012 24.3429 13.6463 25.1918 12.7651C25.3262 12.6255 25.6171 12.2957 26.0643 11.7758C26.9434 10.7538 27.6615 9.50407 28.0575 8.19989C28.5386 6.61639 28.5742 5.02259 28.1641 3.4185C28.0993 3.16542 28.2676 2.89659 28.4959 2.83846C28.6335 2.80335 28.8174 2.82999 29.0474 2.91838C29.3413 3.03181 29.6329 3.18519 29.9223 3.37854C30.6812 3.88512 31.3605 4.47726 31.9603 5.15499C32.724 6.01758 33.3382 6.95202 33.8028 7.95831C34.5972 9.68026 34.9738 11.6002 34.7267 13.4602C34.6559 13.9954 34.5421 14.5803 34.3961 15.2076C34.1509 16.2599 33.9614 17.001 34.1661 17.8747C34.3641 18.7205 35.0174 19.2115 35.8777 18.8737C36.8447 18.4935 37.6021 17.5514 38.1458 16.5929C38.4748 16.0145 38.745 15.4007 38.9565 14.7517C39.011 14.5842 39.1057 14.4507 39.2405 14.3514C39.2608 14.3368 39.2845 14.3276 39.3095 14.3248Z" fill="#00F7C8"/>
<path d="M30.4259 34.3598C30.4449 34.3485 30.5087 34.2714 30.6172 34.1285C31.2138 33.3434 31.9035 32.5848 32.6861 31.8525C34.3306 30.3146 36.1736 29.2242 38.3158 28.7453C38.5309 28.6972 38.7715 28.6585 39.0375 28.629C39.4593 28.5818 39.7021 28.5572 39.7659 28.5552C40.295 28.5358 40.8109 28.556 41.3134 28.6157C41.8596 28.6803 42.3643 28.7877 42.8277 28.9378C44.3301 29.4246 45.6155 30.2783 46.6839 31.4989C47.3379 32.2465 47.8723 33.1137 48.2872 34.1006C48.573 34.7804 48.7716 35.4452 48.883 36.0951C49.0784 37.237 49.1014 38.3545 48.952 39.4475C48.8753 40.0074 48.7226 40.6272 48.4937 41.3069C48.1579 42.3039 47.6739 43.2975 47.0418 44.2877C46.7027 44.8185 46.3774 45.2901 46.0658 45.7026C44.7539 47.4399 43.2618 49.0761 41.5895 50.6112C40.8091 51.3281 40.1558 51.8905 39.5031 52.4439C37.4215 54.2095 35.1447 55.968 32.6728 57.7194C32.2665 58.007 31.7301 58.3666 31.279 58.63C31.0134 58.7854 30.7916 58.8847 30.6136 58.9279C30.4312 58.9719 30.2132 58.9346 29.9597 58.8159C29.6868 58.6879 29.3522 58.4918 28.9558 58.2274C28.4327 57.879 28.0991 57.6528 27.955 57.5486C25.3212 55.6454 22.9298 53.7741 20.7808 51.9347C19.8811 51.1646 18.9939 50.3621 18.1192 49.5274C16.3815 47.869 14.757 46.0738 13.4982 44.1139C13.0796 43.4624 12.7117 42.7804 12.3944 42.068C11.7496 40.6197 11.4856 39.0122 11.571 37.4301C11.6138 36.6414 11.7385 35.8938 11.9452 35.1875C12.4336 33.5204 13.3462 32.079 14.6831 30.8632C15.9966 29.6688 17.5143 28.9316 19.2362 28.6514C19.4001 28.6248 19.5422 28.6098 19.6625 28.6066C19.8653 28.6006 20.0258 28.557 20.2292 28.5545C20.4831 28.5513 20.6845 28.5489 20.8335 28.5473C21.1974 28.5436 21.6169 28.6018 21.9687 28.649C22.1621 28.6748 22.312 28.7001 22.4186 28.7247C23.5524 28.9867 24.6067 29.4075 25.5816 29.9871C26.2778 30.4012 26.9509 30.8832 27.6008 31.4329C28.3185 32.0404 28.9738 32.6966 29.5667 33.4013C30.102 34.0375 30.3698 34.3557 30.3702 34.3562C30.3781 34.3622 30.3877 34.3658 30.3976 34.3665C30.4075 34.3671 30.4174 34.3648 30.4259 34.3598Z" fill="#00F7C8"/>
</svg>
